<svg width="1440" height="474" viewBox="0 0 1440 474" fill="none" xmlns="http://www.w3.org/2000/svg">
<g clip-path="url(#clip0_7417_36060)">
<rect width="1440" height="474" fill="#110846"/>
<path d="M302.219 77.3042L302.219 -5.29688L-719.293 -5.29696L-719.293 77.3041L302.219 77.3042Z" fill="url(#paint0_linear_7417_36060)"/>
<path d="M237.155 159.656L237.155 77.0547L-784.357 77.0546L-784.357 159.656L237.155 159.656Z" fill="url(#paint1_linear_7417_36060)"/>
<path d="M198.988 242.007L198.988 159.406L-822.524 159.406L-822.524 242.007L198.988 242.007Z" fill="url(#paint2_linear_7417_36060)"/>
<path d="M133.51 324.359L133.51 241.758L-888.002 241.758L-888.002 324.359L133.51 324.359Z" fill="url(#paint3_linear_7417_36060)"/>
<path d="M1200.49 412.336L1200.49 494.938L2222 494.937L2222 412.336L1200.49 412.336Z" fill="url(#paint4_linear_7417_36060)"/>
<path d="M1238.66 329.985L1238.66 412.586L2260.17 412.586L2260.17 329.985L1238.66 329.985Z" fill="url(#paint5_linear_7417_36060)"/>
<path d="M1304.13 247.641L1304.14 330.242L2325.65 330.242L2325.65 247.641L1304.13 247.641Z" fill="url(#paint6_linear_7417_36060)"/>
<path d="M237.145 489.961L237.145 407.359L-784.368 407.359L-784.368 489.96L237.145 489.961Z" fill="url(#paint7_linear_7417_36060)"/>
<path d="M198.987 407.625L198.987 325.023L-822.525 325.023L-822.525 407.624L198.987 407.625Z" fill="url(#paint8_linear_7417_36060)"/>
<path d="M133.512 325.265L133.512 242.664L-888 242.664L-888 325.265L133.512 325.265Z" fill="url(#paint9_linear_7417_36060)"/>
<path d="M1135.42 -0.312019L1135.42 82.2891L2156.94 82.2891L2156.94 -0.312023L1135.42 -0.312019Z" fill="url(#paint10_linear_7417_36060)"/>
<path d="M1200.5 82.0395L1200.5 164.641L2222.01 164.641L2222.01 82.0395L1200.5 82.0395Z" fill="url(#paint11_linear_7417_36060)"/>
<path d="M1238.66 164.375L1238.66 246.977L2260.17 246.977L2260.17 164.375L1238.66 164.375Z" fill="url(#paint12_linear_7417_36060)"/>
<path d="M1304.13 246.735L1304.13 329.336L2325.65 329.336L2325.65 246.735L1304.13 246.735Z" fill="url(#paint13_linear_7417_36060)"/>
</g>
<defs>
<linearGradient id="paint0_linear_7417_36060" x1="-700.05" y1="36.0067" x2="195.489" y2="36.0066" gradientUnits="userSpaceOnUse">
<stop stop-color="#110846"/>
<stop offset="0.47" stop-color="#A567F7"/>
<stop offset="0.75" stop-color="#7E44F6"/>
<stop offset="1" stop-color="#100843"/>
</linearGradient>
<linearGradient id="paint1_linear_7417_36060" x1="-765.126" y1="118.352" x2="130.413" y2="118.352" gradientUnits="userSpaceOnUse">
<stop stop-color="white"/>
<stop offset="0.47" stop-color="#A567F7"/>
<stop offset="0.75" stop-color="#7E44F6"/>
<stop offset="1" stop-color="#100843"/>
</linearGradient>
<linearGradient id="paint2_linear_7417_36060" x1="-803.284" y1="200.704" x2="92.258" y2="200.703" gradientUnits="userSpaceOnUse">
<stop stop-color="white"/>
<stop offset="0.47" stop-color="#A567F7"/>
<stop offset="0.75" stop-color="#7E44F6"/>
<stop offset="1" stop-color="#100843"/>
</linearGradient>
<linearGradient id="paint3_linear_7417_36060" x1="-868.759" y1="283.055" x2="26.7797" y2="283.055" gradientUnits="userSpaceOnUse">
<stop stop-color="white"/>
<stop offset="0.47" stop-color="#A567F7"/>
<stop offset="0.75" stop-color="#7E44F6"/>
<stop offset="1" stop-color="#100843"/>
</linearGradient>
<linearGradient id="paint4_linear_7417_36060" x1="2202.77" y1="453.64" x2="1307.23" y2="453.64" gradientUnits="userSpaceOnUse">
<stop stop-color="white"/>
<stop offset="0.47" stop-color="#A567F7"/>
<stop offset="0.75" stop-color="#7E44F6"/>
<stop offset="1" stop-color="#100843"/>
</linearGradient>
<linearGradient id="paint5_linear_7417_36060" x1="2240.93" y1="371.289" x2="1345.39" y2="371.289" gradientUnits="userSpaceOnUse">
<stop stop-color="white"/>
<stop offset="0.47" stop-color="#A567F7"/>
<stop offset="0.75" stop-color="#7E44F6"/>
<stop offset="1" stop-color="#100843"/>
</linearGradient>
<linearGradient id="paint6_linear_7417_36060" x1="2306.4" y1="288.945" x2="1410.87" y2="288.945" gradientUnits="userSpaceOnUse">
<stop stop-color="white"/>
<stop offset="0.47" stop-color="#A567F7"/>
<stop offset="0.75" stop-color="#7E44F6"/>
<stop offset="1" stop-color="#100843"/>
</linearGradient>
<linearGradient id="paint7_linear_7417_36060" x1="-765.128" y1="448.663" x2="130.41" y2="448.663" gradientUnits="userSpaceOnUse">
<stop stop-color="#110846"/>
<stop offset="0.47" stop-color="#A567F7"/>
<stop offset="0.75" stop-color="#7E44F6"/>
<stop offset="1" stop-color="#100843"/>
</linearGradient>
<linearGradient id="paint8_linear_7417_36060" x1="-803.286" y1="366.321" x2="92.2565" y2="366.321" gradientUnits="userSpaceOnUse">
<stop stop-color="#110846"/>
<stop offset="0.47" stop-color="#A567F7"/>
<stop offset="0.75" stop-color="#7E44F6"/>
<stop offset="1" stop-color="#100843"/>
</linearGradient>
<linearGradient id="paint9_linear_7417_36060" x1="-868.757" y1="283.961" x2="26.7814" y2="283.961" gradientUnits="userSpaceOnUse">
<stop stop-color="#110846"/>
<stop offset="0.47" stop-color="#A567F7"/>
<stop offset="0.75" stop-color="#7E44F6"/>
<stop offset="1" stop-color="#100843"/>
</linearGradient>
<linearGradient id="paint10_linear_7417_36060" x1="2137.69" y1="40.9916" x2="1242.15" y2="40.9918" gradientUnits="userSpaceOnUse">
<stop stop-color="#110846"/>
<stop offset="0.47" stop-color="#A567F7"/>
<stop offset="0.75" stop-color="#7E44F6"/>
<stop offset="1" stop-color="#100843"/>
</linearGradient>
<linearGradient id="paint11_linear_7417_36060" x1="2202.77" y1="123.337" x2="1307.23" y2="123.337" gradientUnits="userSpaceOnUse">
<stop stop-color="#110846"/>
<stop offset="0.47" stop-color="#A567F7"/>
<stop offset="0.75" stop-color="#7E44F6"/>
<stop offset="1" stop-color="#100843"/>
</linearGradient>
<linearGradient id="paint12_linear_7417_36060" x1="2240.93" y1="205.679" x2="1345.39" y2="205.679" gradientUnits="userSpaceOnUse">
<stop stop-color="#110846"/>
<stop offset="0.47" stop-color="#A567F7"/>
<stop offset="0.75" stop-color="#7E44F6"/>
<stop offset="1" stop-color="#100843"/>
</linearGradient>
<linearGradient id="paint13_linear_7417_36060" x1="2306.4" y1="288.039" x2="1410.86" y2="288.039" gradientUnits="userSpaceOnUse">
<stop stop-color="#110846"/>
<stop offset="0.47" stop-color="#A567F7"/>
<stop offset="0.75" stop-color="#7E44F6"/>
<stop offset="1" stop-color="#100843"/>
</linearGradient>
<clipPath id="clip0_7417_36060">
<rect width="1440" height="474" fill="white"/>
</clipPath>
</defs>
</svg>
