<svg width="1440" height="645" viewBox="0 0 1440 645" fill="none" xmlns="http://www.w3.org/2000/svg">
<g clip-path="url(#clip0_7410_36042)">
<rect width="645" height="1440" transform="translate(1440 4.7834e-05) rotate(90)" fill="#110846"/>
<path d="M131 -79.9999L1.65929e-05 -80L-0.000162917 755L131 755L131 -79.9999Z" fill="url(#paint0_linear_7410_36042)"/>
<path d="M262 22.0001L131 22L131 755L262 755L262 22.0001Z" fill="url(#paint1_linear_7410_36042)"/>
<path d="M393 80.0001L261 80L261 755L393 755L393 80.0001Z" fill="url(#paint2_linear_7410_36042)"/>
<path d="M523 182L392 182L392 755L523 755L523 182Z" fill="url(#paint3_linear_7410_36042)"/>
<path d="M654 242L523 242L523 755L654 755L654 242Z" fill="url(#paint4_linear_7410_36042)"/>
<path d="M784.85 347.297L653.707 347.297L653.706 1969.12L784.85 1969.12L784.85 347.297Z" fill="url(#paint5_linear_7410_36042)"/>
<path d="M1440 -79.9999L1309 -80L1309 755L1440 755L1440 -79.9999Z" fill="url(#paint6_linear_7410_36042)"/>
<path d="M1309 22.3594L1178 22.3594L1178 754.997L1309 754.997L1309 22.3594Z" fill="url(#paint7_linear_7410_36042)"/>
<path d="M1179 78.7188L1047 78.7188L1047 755L1179 755L1179 78.7188Z" fill="url(#paint8_linear_7410_36042)"/>
<path d="M1048 182.234L917 182.234L917 755.003L1048 755.003L1048 182.234Z" fill="url(#paint9_linear_7410_36042)"/>
<path d="M917 242.039L786 242.039L786 755.001L917 755.001L917 242.039Z" fill="url(#paint10_linear_7410_36042)"/>
<path d="M786 346.703L654 346.703L653.999 755.002L786 755.002L786 346.703Z" fill="url(#paint11_linear_7410_36042)"/>
</g>
<defs>
<linearGradient id="paint0_linear_7410_36042" x1="65.5049" y1="739.27" x2="65.5049" y2="7.2431" gradientUnits="userSpaceOnUse">
<stop offset="0.3125" stop-color="#110846"/>
<stop offset="0.75" stop-color="#7E44F6"/>
<stop offset="1" stop-color="#100843"/>
</linearGradient>
<linearGradient id="paint1_linear_7410_36042" x1="196.505" y1="741.192" x2="196.505" y2="98.5859" gradientUnits="userSpaceOnUse">
<stop offset="0.3125" stop-color="#110846"/>
<stop offset="0.75" stop-color="#7E44F6"/>
<stop offset="1" stop-color="#100843"/>
</linearGradient>
<linearGradient id="paint2_linear_7410_36042" x1="327.005" y1="742.284" x2="327.005" y2="150.526" gradientUnits="userSpaceOnUse">
<stop offset="0.3125" stop-color="#110846"/>
<stop offset="0.75" stop-color="#7E44F6"/>
<stop offset="1" stop-color="#100843"/>
</linearGradient>
<linearGradient id="paint3_linear_7410_36042" x1="457.505" y1="744.206" x2="457.505" y2="241.869" gradientUnits="userSpaceOnUse">
<stop offset="0.3125" stop-color="#110846"/>
<stop offset="0.75" stop-color="#7E44F6"/>
<stop offset="1" stop-color="#100843"/>
</linearGradient>
<linearGradient id="paint4_linear_7410_36042" x1="588.505" y1="745.336" x2="588.505" y2="295.6" gradientUnits="userSpaceOnUse">
<stop offset="0.3125" stop-color="#110846"/>
<stop offset="0.75" stop-color="#7E44F6"/>
<stop offset="1" stop-color="#100843"/>
</linearGradient>
<linearGradient id="paint5_linear_7410_36042" x1="719.273" y1="1938.57" x2="719.273" y2="516.75" gradientUnits="userSpaceOnUse">
<stop stop-color="white"/>
<stop offset="0.47" stop-color="#A567F7"/>
<stop offset="0.75" stop-color="#7E44F6"/>
<stop offset="1" stop-color="#100843"/>
</linearGradient>
<linearGradient id="paint6_linear_7410_36042" x1="1374.5" y1="739.27" x2="1374.5" y2="7.2431" gradientUnits="userSpaceOnUse">
<stop offset="0.3125" stop-color="#110846"/>
<stop offset="0.75" stop-color="#7E44F6"/>
<stop offset="1" stop-color="#100843"/>
</linearGradient>
<linearGradient id="paint7_linear_7410_36042" x1="1243.5" y1="741.196" x2="1243.5" y2="98.9074" gradientUnits="userSpaceOnUse">
<stop offset="0.3125" stop-color="#110846"/>
<stop offset="0.75" stop-color="#7E44F6"/>
<stop offset="1" stop-color="#100843"/>
</linearGradient>
<linearGradient id="paint8_linear_7410_36042" x1="1113" y1="742.26" x2="1113" y2="149.378" gradientUnits="userSpaceOnUse">
<stop offset="0.3125" stop-color="#110846"/>
<stop offset="0.75" stop-color="#7E44F6"/>
<stop offset="1" stop-color="#100843"/>
</linearGradient>
<linearGradient id="paint9_linear_7410_36042" x1="982.505" y1="744.213" x2="982.505" y2="242.079" gradientUnits="userSpaceOnUse">
<stop offset="0.3125" stop-color="#110846"/>
<stop offset="0.75" stop-color="#7E44F6"/>
<stop offset="1" stop-color="#100843"/>
</linearGradient>
<linearGradient id="paint10_linear_7410_36042" x1="851.505" y1="745.337" x2="851.505" y2="295.635" gradientUnits="userSpaceOnUse">
<stop offset="0.3125" stop-color="#110846"/>
<stop offset="0.75" stop-color="#7E44F6"/>
<stop offset="1" stop-color="#100843"/>
</linearGradient>
<linearGradient id="paint11_linear_7410_36042" x1="720.004" y1="747.31" x2="720.004" y2="389.363" gradientUnits="userSpaceOnUse">
<stop offset="0.3125" stop-color="#110846"/>
<stop offset="0.75" stop-color="#7E44F6"/>
<stop offset="1" stop-color="#100843"/>
</linearGradient>
<clipPath id="clip0_7410_36042">
<rect width="645" height="1440" fill="white" transform="translate(1440 4.7834e-05) rotate(90)"/>
</clipPath>
</defs>
</svg>
