<svg preserveAspectRatio="none" width="100%" height="100%" overflow="visible" style="display: block;" viewBox="0 0 15.2226 20.0998" fill="none" xmlns="http://www.w3.org/2000/svg">
<path id="Vector" fill-rule="evenodd" clip-rule="evenodd" d="M11.3492 11.2419H8.40565C6.95887 11.2419 5.86855 11.5242 5.13226 12.0968C4.39597 12.6694 4.02823 13.3952 4.02823 14.2742C4.02823 15.1855 4.3121 15.8952 4.88065 16.4114C5.44839 16.9356 6.27501 17.1936 7.35968 17.1936C8.5992 17.1936 9.57339 16.8468 10.2839 16.1613C10.9935 15.4758 11.3492 14.5725 11.3492 13.4596V11.2419ZM4.83469 0.193547C5.65485 0.0645144 6.54759 0 7.51452 0C12.6532 0 15.2226 2.50008 15.2226 7.50815V20.0967H11.4315V19.1048C9.17823 20.2338 3.96614 20.8064 1.68549 18.5726C0.57259 17.4839 0 16.129 0 14.4677C0 12.5806 0.709676 11.1048 2.13064 10.0565C3.55 9.00806 5.53872 8.4758 8.09517 8.4758H11.3492V7.35492C11.3492 6.00008 11.0258 4.98395 10.3807 4.29847C9.73549 3.61298 8.6629 3.26621 7.16613 3.26621C6.36129 3.26621 5.58549 3.35492 4.83791 3.52427L4.83469 0.193547Z" fill="var(--fill-0, #110846)"/>
</svg>
