<svg preserveAspectRatio="none" width="100%" height="100%" overflow="visible" style="display: block;" viewBox="0 0 127.291 32.292" fill="none" xmlns="http://www.w3.org/2000/svg">
<g id="Group">
<path id="Vector" d="M127.291 14.2726V25.0311H123.342V14.9835C123.342 12.5365 122.289 11.1695 120.239 11.1695C118.189 11.1695 116.836 12.6049 116.454 15.0108C116.344 15.585 116.317 16.4736 116.317 18.3464V25.0175H112.367V7.92965H115.866C115.88 8.08002 115.962 9.61109 115.962 9.70678C115.962 9.82981 116.112 9.89817 116.208 9.81614C117.656 8.66784 119.255 7.60156 121.483 7.60156C125.146 7.60156 127.291 10.0759 127.291 14.2726Z" fill="var(--fill-0, #110846)"/>
<path id="Vector_2" d="M105.999 7.94527L105.876 9.90012C105.862 10.0232 105.712 10.0915 105.63 10.0095C105.152 9.55836 103.389 7.61719 100.396 7.61719C96.1043 7.61719 92.9473 11.3218 92.9473 16.3525C92.9473 21.4515 96.0769 25.1698 100.396 25.1698C103.279 25.1698 105.042 23.297 105.37 22.8869C105.466 22.7775 105.644 22.8459 105.644 22.9826C105.603 23.502 105.534 24.8007 105.097 25.908C104.55 27.3024 103.32 28.601 100.847 28.601C98.8103 28.601 97.0063 27.8218 95.2979 26.1541L93.2343 28.9838C95.1066 31.1027 98.0586 32.292 101.27 32.292C106.436 32.292 109.539 28.7514 109.539 22.9689V7.94527H105.999ZM101.243 21.5882C98.6873 21.5882 96.8833 19.3736 96.8833 16.3525C96.8833 13.3314 98.6873 11.1715 101.243 11.1715C103.799 11.1715 105.603 13.3177 105.603 16.3525C105.589 19.3873 103.785 21.5882 101.243 21.5882Z" fill="var(--fill-0, #110846)"/>
<path id="Vector_3" d="M84.6918 19.9556C84.6918 23.1954 81.9722 25.369 77.9815 25.369C74.8518 25.369 72.0638 24.1523 70.3965 22.4162L71.6948 19.3267C72.9522 20.4614 74.9748 22.0881 77.8585 22.0881C79.8675 22.0881 81.0291 21.1996 81.0291 20.0786C81.0291 18.7799 79.4301 18.4382 77.5168 18.0691C74.7971 17.4949 71.1891 16.5653 71.1891 12.8607C71.1891 9.75756 73.7038 7.625 77.4211 7.625C80.2775 7.625 82.7375 8.71862 84.4321 10.1403L82.4915 12.8607C80.8515 11.562 79.1295 10.9195 77.4211 10.9195C75.7128 10.9195 74.8655 11.6304 74.8655 12.6557C74.8655 14.091 76.7105 14.4601 78.0635 14.7335C81.4665 15.3897 84.6918 16.415 84.6918 19.9556Z" fill="var(--fill-0, #110846)"/>
<path id="Vector_4" d="M26.9363 7.60156C22.112 7.60156 18.6406 11.3472 18.6406 16.4872C18.6406 21.6272 22.112 25.3729 26.9363 25.3729C31.7606 25.3729 35.2456 21.6272 35.2456 16.4872C35.2456 11.3472 31.7743 7.60156 26.9363 7.60156ZM26.9363 21.7913C24.3806 21.7913 22.5766 19.6177 22.5766 16.4736C22.5766 13.3431 24.3396 11.1558 26.9363 11.1558C29.5193 11.1558 31.296 13.3294 31.296 16.4736C31.296 19.6177 29.492 21.7913 26.9363 21.7913Z" fill="var(--fill-0, #110846)"/>
<path id="Vector_5" d="M36.6406 16.4872C36.6406 11.4156 40.112 7.60156 44.745 7.60156C48.4213 7.60156 51.1136 9.44705 52.371 12.9193L48.8723 14.2453C47.9156 12.0991 46.6583 11.1832 44.7586 11.1832C42.3806 11.1832 40.604 13.4251 40.604 16.5009C40.604 19.563 42.367 21.8186 44.7586 21.8186C46.672 21.8186 47.9156 20.9027 48.8723 18.7565L52.371 20.0825C51.1136 23.5548 48.4213 25.4002 44.745 25.4002C40.112 25.3729 36.6406 21.5589 36.6406 16.4872Z" fill="var(--fill-0, #110846)"/>
<path id="Vector_6" d="M15.5253 0C15.457 0 15.375 0.0136702 15.3067 0.054681L12.7373 1.42171C12.6827 1.44905 12.6553 1.50373 12.6553 1.55841V9.69221C12.6553 9.82891 12.4913 9.8836 12.3957 9.80157C12.013 9.47349 11.1247 8.6396 9.89467 8.06545C9.25233 7.76471 8.30933 7.60066 7.44833 7.60066C3.12966 7.60066 0 11.3463 0 16.4863C0 21.6263 3.12966 25.372 7.44833 25.372C9.717 25.372 11.4253 24.1827 12.464 23.1164C12.5323 23.0481 12.5733 23.007 12.6417 22.9387C12.7373 22.843 12.9013 22.8977 12.9013 23.0344L13.038 25.0302H16.605V0.109362C16.605 0.054681 16.564 0 16.4957 0H15.5253ZM8.29567 21.7904C5.71267 21.7904 3.936 19.6168 3.936 16.4727C3.936 13.3285 5.75367 11.1686 8.29567 11.1686C10.8513 11.1686 12.6553 13.3422 12.6553 16.4863C12.6553 19.6168 10.8923 21.7904 8.29567 21.7904Z" fill="var(--fill-0, #110846)"/>
<path id="Vector_7" d="M89.3389 7.99804L86.8652 9.31038C86.8105 9.33772 86.7832 9.39241 86.7832 9.44709V25.0312H90.7329V8.03905C90.7329 7.98437 90.6919 7.92969 90.6235 7.92969H89.5575C89.4755 7.94336 89.4072 7.95703 89.3389 7.99804Z" fill="var(--fill-0, #110846)"/>
<path id="Vector_8" d="M88.7511 5.1635C90.063 5.1635 91.129 4.09722 91.129 2.78487C91.129 1.47253 90.063 0.40625 88.7511 0.40625C87.4391 0.40625 86.373 1.47253 86.373 2.78487C86.373 4.09722 87.4391 5.1635 88.7511 5.1635Z" fill="var(--fill-0, #110846)"/>
<path id="Vector_9" d="M68.9748 7.92969V17.2118C68.9748 24.252 65.0388 25.3593 61.5265 25.3593C58.0141 25.3593 54.0781 24.2383 54.0781 17.2118V7.92969H58.0141V18.1961C58.0141 19.194 58.2601 21.7913 61.5265 21.7913C64.7928 21.7913 65.0388 19.2076 65.0388 18.1961V7.92969H68.9748Z" fill="var(--fill-0, #110846)"/>
</g>
</svg>
