<svg preserveAspectRatio="none" width="100%" height="100%" overflow="visible" style="display: block;" viewBox="0 0 208 100" fill="none" xmlns="http://www.w3.org/2000/svg">
<g id="salesforce-partner-logo 1 [Vectorized]">
<path id="Vector" d="M37.5097 11.4407C42.637 10.883 48.8411 13.2561 52.6227 16.6438C53.6436 17.5585 54.6405 18.6436 55.6121 19.6257C56.7923 18.444 58.3843 17.1964 59.8314 16.3628C64.3934 13.7497 69.8115 13.0745 74.8746 14.4882C79.943 15.8639 84.0999 19.2498 86.6986 23.7905C88.0521 23.4016 89.5245 22.7824 90.8695 22.5063C94.806 21.6979 99.5741 21.7195 103.414 22.8931C109.479 24.7678 114.561 28.961 117.555 34.5624C120.578 40.2818 121.289 46.8663 119.444 53.1052C119.026 54.5209 117.968 57.1299 117.181 58.479C113.245 65.2277 106.22 69.731 98.4157 70.3171C97.0787 70.3534 95.7383 70.3777 94.4019 70.3339C93.8735 70.3166 92.0543 69.946 91.7246 70.2562C90.9556 70.9796 90.4102 72.1841 89.6784 72.9776C88.07 74.7215 86.3674 76.029 84.2745 77.1317C82.3312 77.9808 81.406 78.3396 79.2441 78.6932C76.2663 79.1803 71.2191 78.8674 68.7511 77.038C68.6401 77.6305 68.5941 77.8652 68.3171 78.4073C65.83 83.2172 61.532 86.839 56.3719 88.473C55.1165 88.8756 54.2866 88.9159 53.0189 89.0951C44.5992 90.2845 36.3268 85.9961 32.5111 78.3908C32.1749 77.7207 31.8102 77.1022 31.5796 76.3729C28.4325 76.6365 25.944 76.8368 22.8541 75.9893C18.1585 74.6904 14.1696 71.5808 11.7623 67.3427C6.7559 58.5202 9.45955 46.6222 18.4575 41.5219C17.2502 39.2067 16.8742 36.2805 16.7726 33.7126C16.299 21.7323 25.5851 11.7588 37.5097 11.4407Z" fill="var(--fill-0, #110846)"/>
<path id="Vector_2" d="M77.8118 42.7966C79.2373 42.7329 80.5637 42.5686 81.7865 43.4598C84.9068 45.7341 84.3895 52.3604 80.1553 53.0557C78.9527 53.2122 77.6925 53.2604 76.6066 52.6343C73.5255 50.858 73.5008 45.0054 76.6271 43.2469C77.0754 42.9948 77.3211 42.9166 77.8118 42.7966Z" fill="var(--fill-0, #D8C1FE)"/>
<path id="Vector_3" d="M78.5351 44.5283C80.8403 44.4226 81.4638 46.0408 81.43 48.0822C81.4056 49.5539 81.0702 50.7312 79.6081 51.3569C77.5328 51.4944 76.7974 50.4168 76.6372 48.3633C76.5198 46.8579 76.8901 45.0305 78.5351 44.5283Z" fill="var(--fill-0, #110846)"/>
<path id="Vector_4" d="M36.8731 42.8114C38.3093 42.5584 40.6404 42.6165 41.7072 43.719C42.0942 44.1256 42.3588 44.6332 42.4705 45.1835C42.6597 46.0737 42.5607 51.4211 42.5574 52.7189C40.159 53.0632 36.5281 53.8833 34.7779 51.8711C34.1089 50.7404 34.0998 50.435 34.1301 49.186C36.5799 44.9028 39.4958 47.2234 40.4932 46.4329C40.6788 45.7051 40.0876 45.105 39.4993 44.7572C38.3377 44.0708 37.0002 44.7734 35.8667 45.1407C34.9466 45.4389 34.8622 44.0527 34.76 43.4809C35.4895 43.1324 36.0914 42.9851 36.8731 42.8114Z" fill="var(--fill-0, #D8C1FE)"/>
<path id="Vector_5" d="M37.9587 48.2789C38.826 48.2368 39.5116 48.2644 40.3821 48.3035C40.432 49.1754 40.3913 50.4108 40.3896 51.3097C39.9983 51.3435 39.5257 51.3476 39.1271 51.3618C38.5392 51.3704 37.9181 51.354 37.3277 51.347L36.5135 50.6851C36.2954 49.1952 36.4797 48.7676 37.9587 48.2789Z" fill="var(--fill-0, #110846)"/>
<path id="Vector_6" d="M51.9762 42.7902C55.1688 42.6722 56.942 43.0923 57.5406 46.7795C57.625 47.2997 57.5824 47.9136 57.5734 48.4449L50.8785 48.4546C50.9552 51.5279 53.2526 51.682 55.7059 51.0773L56.6314 50.721C56.8259 51.3565 57.0104 51.9951 57.1844 52.6365C55.3716 53.2033 52.6079 53.5054 50.8584 52.5911C49.8313 52.0631 49.0665 51.1358 48.7433 50.0265C48.3569 48.7076 48.3966 46.1861 49.1404 44.9893C49.9201 43.7345 50.6043 43.189 51.9762 42.7902Z" fill="var(--fill-0, #D8C1FE)"/>
<path id="Vector_7" d="M52.4688 44.5362C54.4316 44.3956 54.9982 44.9542 55.3656 46.8347L53.7774 46.8559C52.7832 46.8651 51.7889 46.858 50.7949 46.8345C51.0804 45.6631 51.3518 45.0742 52.4688 44.5362Z" fill="var(--fill-0, #110846)"/>
<path id="Vector_8" d="M103.497 42.7929C104.034 42.7688 104.873 42.7284 105.393 42.7641C106.381 42.8285 107.304 43.2867 107.952 44.0362C109.018 45.2759 109.151 46.8922 109.024 48.4411C106.766 48.4563 104.509 48.4559 102.251 48.44C102.288 48.6045 102.328 48.7687 102.369 48.9327C103.043 51.6672 104.973 51.6502 107.283 51.0696L108.164 50.7246C108.358 51.4936 108.472 51.9172 108.536 52.7016C102.689 54.4241 98.2268 51.5397 100.668 45.0371C101.082 43.9361 102.382 43.1465 103.497 42.7929Z" fill="var(--fill-0, #D8C1FE)"/>
<path id="Vector_9" d="M103.963 44.5321C105.104 44.4552 106.607 44.8819 106.824 46.1727C106.708 47.0256 105.881 46.8704 105.238 46.8572L102.396 46.861L102.585 46.214C102.841 45.3241 103.156 44.9781 103.963 44.5321Z" fill="var(--fill-0, #110846)"/>
<path id="Vector_10" d="M73.3273 38.5288C74.2916 38.4075 74.685 38.5482 75.6119 38.7852C75.4942 39.4922 75.3384 40.0134 75.1394 40.702C72.8437 39.9667 72.4495 40.9131 71.9784 42.9703L74.4279 42.9828L73.9206 44.7431C73.1668 44.7377 72.4131 44.7202 71.6599 44.6908C71.5242 46.7071 70.2034 54.149 69.3709 55.7675C68.8559 56.7686 68.1929 57.2154 67.1564 57.5515C66.3632 57.8005 65.0309 57.5266 64.2461 57.3378C64.4905 56.7224 64.6601 56.0782 64.843 55.4413C65.4957 55.639 66.1252 55.9038 66.7693 55.5554C68.354 54.6982 68.9356 46.7498 69.5161 44.7172L67.8586 44.7273C67.8881 44.1787 68.0181 43.5366 68.1129 42.9875L69.7858 42.9734C70.2971 40.4065 70.6458 39.2738 73.3273 38.5288Z" fill="var(--fill-0, #D8C1FE)"/>
<path id="Vector_11" d="M61.3194 42.7867C63.4306 42.7331 64.3986 42.5122 66.2293 43.6665C65.7127 46.0789 65.4036 44.966 63.6552 44.5845C62.8742 44.4141 61.2855 44.3275 61.0854 45.4003C61.2322 46.6842 63.8711 46.9781 64.923 47.678C65.6793 48.1812 65.596 48.0307 66.2668 48.7658C66.8083 51.0832 66.0509 52.9473 63.4685 53.1435C62.3043 53.1506 59.2237 53.289 58.7801 51.7584C58.6408 51.2778 59.0509 50.6971 59.2986 50.2856C61.1823 51.3261 61.4556 51.4288 63.6538 51.3561C63.8267 51.1743 64.1458 50.8533 64.2433 50.6328C64.3281 50.4407 64.3313 50.2224 64.2519 50.0281C63.7345 48.7857 59.5802 48.7394 59.088 46.8338C58.5539 44.7662 59.4498 43.5325 61.3194 42.7867Z" fill="var(--fill-0, #D8C1FE)"/>
<path id="Vector_12" d="M27.9733 42.7981C29.8945 42.7358 31.1546 42.5409 32.8498 43.5801C32.7406 44.1346 32.5229 44.8639 32.3707 45.4233C31.3203 44.7936 27.8982 43.5734 27.7686 45.6106C28.2847 46.8014 31.0331 47.046 32.1375 48.0088C34.355 49.9422 32.9663 52.7838 30.2525 53.1423C28.1083 53.1655 27.1895 53.2017 25.3301 52.0186C25.3775 51.8523 25.7122 50.398 25.9215 50.4564C27.2413 50.825 31.2049 52.8343 30.9527 49.9117C30.9391 49.754 30.432 49.4161 30.2556 49.353C27.9445 48.5261 24.3622 47.8801 25.921 44.5137C26.3548 43.5764 27.0162 43.142 27.9733 42.7981Z" fill="var(--fill-0, #D8C1FE)"/>
<path id="Vector_13" d="M95.2948 42.7897C97.0086 42.7453 97.8355 42.6933 99.5382 43.0428C99.3818 43.5674 99.1322 44.2202 98.9459 44.7478C98.0111 44.7306 97.1084 44.4397 96.1654 44.5996C93.3644 45.0746 93.0973 49.5657 95.297 50.9413C96.5612 51.7319 97.6583 51.2446 98.9603 50.9636C99.1627 51.3938 99.5702 52.0973 99.4865 52.5213C98.9011 53.4867 94.973 53.2118 93.9648 52.5977C91.377 51.0218 90.9312 47.4727 92.3333 44.9427C93.0372 43.6726 93.9886 43.1664 95.2948 42.7897Z" fill="var(--fill-0, #D8C1FE)"/>
<path id="Vector_14" d="M89.158 42.7852C90.1916 42.7327 90.473 42.7751 91.4271 43.0447L90.9894 44.7475C90.4504 44.7306 89.8952 44.7285 89.3544 44.72C88.4059 45.2504 88.2407 45.3564 87.658 46.2702C87.5591 47.2747 87.7838 52.5541 87.4865 52.924L87.0643 52.9465L85.2754 52.9447L85.2786 42.9834C85.8028 42.9768 86.8776 42.8068 87.2941 43.0738C87.426 43.1582 87.4265 43.3678 87.4635 43.5534C87.5078 43.5724 87.5521 43.5915 87.5964 43.6106C88.1471 43.2192 88.5437 42.9884 89.158 42.7852Z" fill="var(--fill-0, #D8C1FE)"/>
<path id="Vector_15" d="M44.684 38.8573C45.4025 38.8566 46.1209 38.8521 46.8393 38.8438L46.8294 52.9476L44.6758 52.9377L44.684 38.8573Z" fill="var(--fill-0, #D8C1FE)"/>
<path id="Vector_16" d="M132.972 41.9999C134.06 41.9575 135.238 42.0711 136.075 42.8087C138.362 44.8481 138.356 49.5874 136.437 51.8775C134.726 53.9168 131.996 54.112 129.996 52.3833L129.989 54.5479C129.988 55.4462 129.996 56.3444 130.009 57.2426C129.246 57.2005 128.782 57.2044 128.018 57.2482C127.973 56.4143 127.937 54.0634 127.981 53.2962C128.05 52.0932 127.789 42.5419 128.199 42.1907C128.711 42.0575 129.122 42.0734 129.614 42.2681C129.803 42.5296 129.827 43.1647 129.868 43.5193C131.173 42.7116 131.463 42.2592 132.972 41.9999ZM129.924 45.4349C130.025 48.3618 128.886 52.5653 133.364 51.8416C134.357 51.3619 135.075 50.842 135.375 49.706C136.112 46.9237 135.758 43.0636 131.916 43.744C130.892 44.2567 130.614 44.4856 129.924 45.4349Z" fill="var(--fill-0, #110846)"/>
<path id="Vector_17" d="M183.75 41.9991C185.975 41.8802 187.944 42.4515 188.824 44.7352C189.094 45.4379 189.486 46.9786 189.185 47.6641C188.511 48.1393 181.944 47.4114 181.486 48.082C181.222 49.7147 182.431 51.3844 183.983 51.7556C185.425 52.1 186.383 51.6636 187.601 51.0092C187.84 50.8515 187.874 50.8381 188.154 50.7787C188.515 50.9186 188.895 51.4552 189.237 51.7931C187.188 53.4358 184.359 54.2256 181.945 52.8336C179.136 51.2146 178.567 46.9621 180.159 44.3208C181.018 42.8963 182.209 42.3542 183.75 41.9991ZM181.448 46.5079L185.072 46.5133C185.542 46.5297 186.965 46.6593 187.298 46.4273C187.706 45.4527 186.441 44.0419 185.583 43.6854C185.121 43.4934 184.551 43.4978 184.061 43.5266C182.187 44.0404 181.917 44.7778 181.448 46.5079Z" fill="var(--fill-0, #110846)"/>
<path id="Vector_18" d="M143.465 42.0034C143.717 41.9887 143.969 41.9797 144.221 41.9766C145.299 41.9736 146.328 42.2136 147.109 43.0055C147.554 43.4648 147.865 44.0381 148.006 44.6623C148.227 45.6004 148.14 47.2627 148.14 48.2791V53.4366C146.72 53.3142 146.705 53.4777 146.28 52.0504C146.216 52.1089 146.151 52.1663 146.085 52.2224C144.191 53.825 141.439 54.2371 139.706 52.1382C139.53 51.7741 139.389 50.9625 139.383 50.5657C139.341 47.453 144.059 47.0821 146.236 47.0421C145.638 40.0109 141.299 46.2325 140.111 44.3245C139.903 42.8458 142.362 42.1863 143.465 42.0034ZM142.745 52.0987C143.511 52.1494 143.947 51.9911 144.632 51.7333C146.515 51.0247 146.201 50.061 146.183 48.3507L144.912 48.404C143.542 48.5706 141.256 49.0239 141.259 50.8032C141.259 51.3404 142.253 51.9779 142.745 52.0987Z" fill="var(--fill-0, #110846)"/>
<path id="Vector_19" d="M173.182 42.0117C173.411 42.0009 173.641 41.9965 173.87 41.9985C174.742 42.0118 175.639 42.3878 176.238 43.0161C177.119 43.9307 177.238 45.2521 177.218 46.4612C177.179 48.7614 177.246 51.0631 177.199 53.3638C176.537 53.3279 175.92 53.3333 175.258 53.3374C175.087 50.7736 175.393 48.0291 175.123 45.4738C175.035 44.6565 174.562 44.1885 173.898 43.7479C172.714 43.7062 172.279 43.6208 171.23 44.1752C170.88 44.4501 170.483 44.7109 170.115 44.9639C170.275 47.366 170.188 50.8643 170.196 53.3373C169.422 53.3063 168.775 53.3308 167.999 53.3639C167.913 50.5535 168.022 47.6899 167.978 44.8744C167.964 44.0377 167.956 43.1131 168.022 42.2865C169.081 41.4384 169.678 42.4124 170.082 43.3241C170.56 43.2011 171.278 42.4838 171.717 42.2947C171.947 42.1961 172.895 42.0569 173.182 42.0117Z" fill="var(--fill-0, #110846)"/>
<path id="Vector_20" d="M161.291 38.4182C161.737 38.392 161.98 38.3586 162.415 38.4552C162.735 38.8651 162.579 41.781 162.517 42.4038C163.652 42.3542 164.62 42.422 165.807 42.3123C165.761 42.8106 165.77 43.4231 165.764 43.9315C164.718 43.8831 163.561 43.9104 162.506 43.9137C162.641 45.4622 162.415 50.4612 162.739 51.3966C162.944 51.6618 163.414 51.8153 163.74 51.9533C164.274 51.6457 164.696 51.4633 165.26 51.2171C165.521 51.5912 165.802 52.1671 166.021 52.5829C166.004 52.6103 165.953 52.7195 165.926 52.7339C163.212 54.1812 160.492 53.8429 160.394 50.4442C160.316 47.7873 160.367 46.0717 160.377 43.897C159.7 43.9329 158.851 44.1049 158.537 43.2757C158.71 42.2983 159.789 42.357 160.579 42.3448C160.697 41.3042 160.803 39.2522 161.291 38.4182Z" fill="var(--fill-0, #110846)"/>
<path id="Vector_21" d="M155.813 41.9945C156.711 41.9504 158.535 41.9783 157.802 43.6455C157.377 44.6153 156.045 43.7664 155.246 44.0024C154.222 44.3045 153.776 45.0672 153.236 45.9499C153.191 48.4142 153.222 50.8803 153.211 53.3465L152.004 53.3258C151.654 53.3451 151.545 53.3613 151.199 53.2829C151.158 53.2285 151.11 53.163 151.053 53.0861C151.034 50.09 150.902 45.1059 151.064 42.3048L151.2 42.1912C151.705 42.064 152.304 42.1609 152.831 42.2104C152.828 42.4112 152.828 42.6121 152.83 42.8131C152.835 43.2006 152.835 43.4248 153.106 43.6879C153.904 43.4411 153.893 42.3159 155.813 41.9945Z" fill="var(--fill-0, #110846)"/>
<path id="Vector_22" d="M196.167 41.988C197.652 41.8401 199.196 42.1034 198.122 43.9377C197.695 44.2969 194.277 43.2931 193.778 46.068C193.339 48.5047 193.711 50.9043 193.567 53.3568L192.13 53.3514C192.034 53.3558 191.89 53.3256 191.789 53.3097C191.512 52.9932 191.483 42.6812 191.803 42.2953C192.283 42.0081 192.875 42.0339 193.296 42.3998C193.581 43.0316 193.4 43.6532 193.29 44.3417C194.274 43.1245 194.632 42.4563 196.167 41.988Z" fill="var(--fill-0, #110846)"/>
</g>
</svg>
