<svg preserveAspectRatio="none" width="100%" height="100%" overflow="visible" style="display: block;" viewBox="0 0 187 35" fill="none" xmlns="http://www.w3.org/2000/svg">
<g id="Varicent_id-0rrRDt3_1 1" clip-path="url(#clip0_7350_21418)">
<path id="Vector" d="M61.0038 6.01562L66.6255 19.959L72.2745 6.01562H78.8555L69.0361 28.9217H64.2179L54.4258 6.01562H61.0038Z" fill="var(--fill-0, #110846)"/>
<path id="Vector_2" d="M89.6631 12.2109H95.3393V28.9241H89.6631V26.7009C88.4586 28.1832 86.8275 28.9241 84.7698 28.9241C83.6658 28.9367 82.5712 28.7244 81.5558 28.3006C80.5906 27.8916 79.7204 27.2952 78.9981 26.5476C78.2592 25.7808 77.6818 24.8795 77.2987 23.895C76.8854 22.8348 76.6797 21.7082 76.6919 20.5738C76.686 19.4853 76.8861 18.4052 77.2821 17.3878C77.6579 16.4145 78.2197 15.52 78.9378 14.7523C79.6486 13.9977 80.5079 13.3911 81.4643 12.9688C82.484 12.5233 83.5906 12.3 84.7076 12.3147C86.7041 12.3147 88.3564 12.9952 89.664 14.3561L89.6631 12.2109ZM82.5531 20.5738C82.5445 21.53 82.9204 22.4512 83.6001 23.1388C83.9267 23.4683 84.3198 23.7277 84.7542 23.9006C85.2132 24.0864 85.7058 24.1797 86.2025 24.1748C86.6896 24.1776 87.1723 24.0843 87.6216 23.9006C88.0559 23.7271 88.449 23.468 88.7758 23.1388C89.1 22.8091 89.3637 22.4271 89.5549 22.0097C89.7526 21.5787 89.8523 21.1109 89.8471 20.6386C89.851 20.1617 89.7513 19.6895 89.5549 19.2531C89.3656 18.8306 89.1019 18.4439 88.7758 18.1105C88.4485 17.782 88.0556 17.5229 87.6216 17.3488C87.1723 17.1647 86.6898 17.0711 86.2025 17.0736C85.7058 17.069 85.2132 17.1626 84.7542 17.3488C84.3201 17.5223 83.9271 17.7817 83.6001 18.1105C83.2787 18.4337 83.0195 18.8107 82.8346 19.2235C82.6467 19.6498 82.5501 20.1095 82.5531 20.5738Z" fill="var(--fill-0, #110846)"/>
<path id="Vector_3" d="M98.5391 12.2079H104.461V15.2024C105.092 14.2223 105.866 13.4711 106.783 12.9487C107.697 12.4278 108.767 12.1641 109.988 12.1641H110.493C110.708 12.167 110.922 12.189 111.132 12.2298V17.7609C110.34 17.3758 109.466 17.1785 108.581 17.1848C107.209 17.1848 106.178 17.585 105.488 18.3855C104.799 19.1859 104.456 20.3527 104.461 21.8857V28.9212H98.5391V12.2079Z" fill="var(--fill-0, #110846)"/>
<path id="Vector_4" d="M113.209 6.02408C113.206 5.63131 113.287 5.24224 113.446 4.88149C113.6 4.52965 113.821 4.20951 114.097 3.93791C114.375 3.66741 114.702 3.4512 115.062 3.30091C115.432 3.14871 115.83 3.07031 116.231 3.07031C116.633 3.07031 117.03 3.14871 117.4 3.30091C118.127 3.60345 118.707 4.16907 119.018 4.87959C119.173 5.24129 119.254 5.62976 119.254 6.02218C119.254 6.4146 119.173 6.80308 119.018 7.16477C118.707 7.87567 118.128 8.44192 117.401 8.74535C117.031 8.89804 116.634 8.97669 116.232 8.97669C115.831 8.97669 115.433 8.89804 115.064 8.74535C114.336 8.44276 113.756 7.87623 113.447 7.16477C113.288 6.80469 113.207 6.41629 113.209 6.02408ZM119.191 12.2569V28.9197H113.309V12.2569H119.191Z" fill="var(--fill-0, #110846)"/>
<path id="Vector_5" d="M134.495 17.795C133.512 17.1418 132.519 16.8145 131.517 16.8133C130.996 16.8084 130.479 16.9022 129.995 17.0894C129.534 17.2684 129.112 17.5335 128.755 17.8702C128.399 18.2111 128.116 18.6175 127.923 19.066C127.719 19.5579 127.617 20.0847 127.625 20.6153C127.619 21.1359 127.721 21.6522 127.923 22.1339C128.113 22.5809 128.39 22.9876 128.738 23.3318C129.092 23.6745 129.515 23.9413 129.98 24.1155C130.47 24.3003 130.991 24.3941 131.517 24.3914C132.582 24.3914 133.575 24.0329 134.495 23.3155V28.0402C133.094 28.6343 131.767 28.9304 130.512 28.9285C129.372 28.9343 128.24 28.7374 127.172 28.3477C126.135 27.974 125.184 27.4037 124.373 26.6692C123.563 25.9349 122.909 25.0512 122.449 24.0687C121.969 23.053 121.729 21.9236 121.729 20.68C121.714 19.5058 121.949 18.3413 122.419 17.2608C122.858 16.2585 123.497 15.352 124.3 14.5947C125.119 13.8346 126.084 13.2408 127.14 12.8475C128.266 12.423 129.463 12.2098 130.67 12.2191C131.996 12.2074 133.306 12.5009 134.495 13.076V17.795Z" fill="var(--fill-0, #110846)"/>
<path id="Vector_6" d="M142.078 21.5199C142.078 23.8754 143.211 25.0537 145.478 25.0542C146.693 25.0542 147.61 24.5709 148.229 23.6042H153.641C152.548 27.1512 149.816 28.9249 145.447 28.9249C144.195 28.9383 142.95 28.7387 141.768 28.3344C140.708 27.9734 139.735 27.4041 138.908 26.6616C138.113 25.9329 137.486 25.0467 137.069 24.0621C136.636 23.0529 136.419 21.9242 136.42 20.6762C136.42 19.3882 136.625 18.2247 137.036 17.1856C137.422 16.1899 138.023 15.2874 138.798 14.5396C139.591 13.798 140.533 13.2271 141.565 12.8638C142.647 12.4708 143.869 12.2741 145.231 12.2734C146.57 12.2734 147.774 12.4702 148.846 12.8638C149.873 13.2268 150.805 13.8098 151.573 14.57C152.335 15.3514 152.914 16.285 153.271 17.3065C153.661 18.3857 153.856 19.5996 153.856 20.9485V21.5199H142.078ZM148.631 18.3444C148.471 17.6223 148.068 16.9734 147.486 16.502C146.908 16.0373 146.208 15.8053 145.386 15.8059C144.519 15.8059 143.813 16.0297 143.267 16.4725C142.72 16.9152 142.375 17.5399 142.23 18.3454L148.631 18.3444Z" fill="var(--fill-0, #110846)"/>
<path id="Vector_7" d="M155.705 12.2109H161.521V14.8551C162.311 13.9144 163.114 13.2815 163.929 12.9565C164.744 12.6315 165.697 12.469 166.788 12.469C167.944 12.469 168.933 12.6527 169.757 13.0203C170.569 13.3766 171.288 13.9071 171.861 14.5723C172.322 15.0984 172.653 15.7219 172.826 16.3938C173.006 17.1455 173.092 17.9156 173.082 18.6875V28.9241H167.268V20.7908C167.268 19.9967 167.21 19.3511 167.093 18.8607C167.001 18.418 166.784 18.0095 166.465 17.6821C166.224 17.4399 165.927 17.2571 165.599 17.1488C165.267 17.0421 164.919 16.9888 164.57 16.9908C163.585 16.9908 162.831 17.279 162.307 17.8554C161.783 18.4316 161.521 19.2527 161.521 20.3185V28.9241H155.705V12.2109Z" fill="var(--fill-0, #110846)"/>
<path id="Vector_8" d="M183.981 17.4861V28.9263H177.941V17.4861H174.932V12.2997H177.941V6.04688H183.981V12.2997H186.999V17.4861H183.981Z" fill="var(--fill-0, #110846)"/>
<path id="Vector_9" fill-rule="evenodd" clip-rule="evenodd" d="M10.5421 11.4983C10.545 12.5176 10.2386 13.5149 9.66168 14.3639C9.08477 15.213 8.26325 15.8757 7.30102 16.2682C6.33881 16.6608 5.27911 16.7655 4.256 16.5692C3.23286 16.3729 2.29227 15.8844 1.55317 15.1655C0.814077 14.4465 0.309684 13.5294 0.103795 12.5302C-0.102095 11.5309 -0.000233755 10.4945 0.396494 9.55183C0.793224 8.60919 1.467 7.80276 2.33259 7.23453C3.19819 6.66629 4.21673 6.36179 5.25937 6.35952C5.9527 6.35449 6.64019 6.48385 7.28209 6.74014C7.92398 6.99643 8.50756 7.37457 8.99905 7.85269C9.49056 8.33079 9.88026 8.89941 10.1456 9.52565C10.411 10.1519 10.5467 10.8233 10.545 11.5012" fill="var(--fill-0, #110846)"/>
<path id="Vector_10" fill-rule="evenodd" clip-rule="evenodd" d="M19.8696 4.55802C19.8696 5.45937 19.5962 6.3405 19.084 7.09C18.5719 7.83949 17.8439 8.4237 16.9921 8.76878C16.1404 9.11384 15.2031 9.20427 14.2988 9.02862C13.3944 8.85299 12.5637 8.41916 11.9115 7.78201C11.2594 7.14485 10.8151 6.33295 10.6349 5.44898C10.4546 4.565 10.5466 3.64863 10.899 2.81572C11.2514 1.9828 11.8486 1.27075 12.6149 0.769568C13.3812 0.268385 14.2823 0.000584456 15.2043 1.95749e-05C15.8173 -0.00173845 16.4245 0.114937 16.9911 0.34334C17.5578 0.571741 18.0726 0.907368 18.5062 1.33093C18.9396 1.7545 19.2832 2.25764 19.5172 2.81145C19.7513 3.36525 19.871 3.95882 19.8696 4.55802Z" fill="var(--fill-0, #110846)"/>
<path id="Vector_11" fill-rule="evenodd" clip-rule="evenodd" d="M19.6575 18.4639C19.6575 19.4055 19.3719 20.326 18.8368 21.1088C18.3018 21.8918 17.5413 22.502 16.6514 22.8623C15.7615 23.2226 14.7824 23.317 13.8377 23.1332C12.8931 22.9495 12.0253 22.4962 11.3443 21.8303C10.6633 21.1645 10.1994 20.3162 10.0115 19.3928C9.82364 18.4693 9.92007 17.512 10.2887 16.642C10.6572 15.7721 11.2814 15.0286 12.0822 14.5055C12.8831 13.9823 13.8246 13.7031 14.7878 13.7031C15.4273 13.7031 16.0605 13.8263 16.6514 14.0655C17.2422 14.3048 17.7791 14.6554 18.2312 15.0975C18.6834 15.5396 19.0421 16.0644 19.2868 16.642C19.5317 17.2196 19.6575 17.8388 19.6575 18.4639Z" fill="var(--fill-0, #110846)"/>
<path id="Vector_12" fill-rule="evenodd" clip-rule="evenodd" d="M27.6453 11.3467C27.6453 12.1678 27.3962 12.9704 26.9296 13.6531C26.463 14.3358 25.7998 14.8679 25.0238 15.1821C24.248 15.4963 23.3941 15.5786 22.5704 15.4184C21.7466 15.2582 20.99 14.8628 20.3962 14.2822C19.8023 13.7016 19.3977 12.9619 19.234 12.1566C19.07 11.3513 19.1543 10.5166 19.4757 9.75805C19.7971 8.99947 20.3413 8.35112 21.0396 7.89494C21.738 7.43879 22.5589 7.19531 23.3988 7.19531C23.9565 7.19519 24.5088 7.30248 25.024 7.51106C25.5394 7.71965 26.0074 8.02544 26.4018 8.41095C26.7961 8.79648 27.1089 9.25417 27.3223 9.75791C27.5357 10.2616 27.6455 10.8015 27.6453 11.3467Z" fill="var(--fill-0, #110846)"/>
<path id="Vector_13" fill-rule="evenodd" clip-rule="evenodd" d="M28.0913 24.9646C28.0913 25.826 27.8301 26.6679 27.3405 27.3842C26.851 28.1003 26.1553 28.6585 25.3414 28.9882C24.5273 29.3179 23.6316 29.404 22.7674 29.236C21.9032 29.068 21.1094 28.6533 20.4864 28.0441C19.8633 27.4351 19.4392 26.659 19.2672 25.8142C19.0954 24.9693 19.1835 24.0936 19.5208 23.2979C19.8579 22.502 20.4289 21.822 21.1615 21.3433C21.8941 20.8647 22.7554 20.6094 23.6365 20.6094C24.2218 20.6085 24.8014 20.7207 25.3423 20.9393C25.883 21.158 26.3744 21.4788 26.7883 21.8832C27.2021 22.2878 27.5303 22.7682 27.7539 23.297C27.9774 23.8257 28.0922 24.3924 28.0913 24.9646Z" fill="var(--fill-0, #110846)"/>
<path id="Vector_14" fill-rule="evenodd" clip-rule="evenodd" d="M34.7704 17.5937C34.7706 18.3402 34.5443 19.0702 34.1201 19.6909C33.6961 20.3118 33.0932 20.7957 32.3877 21.0814C31.6823 21.3672 30.906 21.4421 30.1569 21.2967C29.4081 21.1511 28.72 20.7916 28.18 20.2638C27.6399 19.736 27.2721 19.0635 27.123 18.3313C26.9741 17.5991 27.0505 16.8403 27.3427 16.1505C27.6347 15.4608 28.1296 14.8713 28.7646 14.4565C29.3995 14.0417 30.1459 13.8203 30.9096 13.8203C33.0474 13.8489 34.7704 15.5342 34.7704 17.5937Z" fill="var(--fill-0, #110846)"/>
<path id="Vector_15" fill-rule="evenodd" clip-rule="evenodd" d="M35.8412 30.9772C35.8494 31.5028 35.7509 32.0246 35.5509 32.5125C35.351 33.0004 35.0537 33.4446 34.6766 33.8191C34.2992 34.1936 33.8497 34.4911 33.3538 34.6941C32.858 34.8971 32.3256 35.0015 31.788 35.0015C31.2504 35.0015 30.7181 34.8971 30.2223 34.6941C29.7263 34.4911 29.2768 34.1936 28.8995 33.8191C28.5223 33.4446 28.2251 33.0004 28.0251 32.5125C27.8252 32.0246 27.7266 31.5028 27.7348 30.9772C27.7348 28.7997 29.5465 27 31.773 27C32.3076 26.9984 32.8375 27.1003 33.3317 27.2994C33.8262 27.4988 34.2753 27.7917 34.6533 28.1613C35.0315 28.5309 35.3311 28.97 35.5348 29.4533C35.7388 29.9367 35.8428 30.4545 35.8412 30.9772Z" fill="var(--fill-0, #110846)"/>
<path id="Vector_16" fill-rule="evenodd" clip-rule="evenodd" d="M40.712 23.8317C40.713 24.4981 40.5117 25.1497 40.1337 25.7042C39.7559 26.2586 39.2181 26.6911 38.5886 26.9467C37.9591 27.2022 37.2663 27.2696 36.5977 27.1401C35.9292 27.0106 35.3149 26.6902 34.8327 26.2193C34.3503 25.7483 34.0219 25.1483 33.8888 24.4948C33.7554 23.8412 33.8236 23.1638 34.0843 22.5481C34.3451 21.9325 34.7867 21.4064 35.3535 21.0363C35.9203 20.666 36.5865 20.4686 37.2681 20.4688C38.1805 20.4695 39.0556 20.824 39.7012 21.4544C40.3467 22.0847 40.7103 22.9398 40.712 23.8317Z" fill="var(--fill-0, #110846)"/>
<path id="Vector_17" fill-rule="evenodd" clip-rule="evenodd" d="M39.9399 11.8416C39.9399 12.3929 39.7726 12.9317 39.4593 13.39C39.1461 13.8483 38.701 14.2055 38.18 14.4165C37.659 14.6274 37.0858 14.6826 36.5328 14.5751C35.9799 14.4675 35.472 14.2021 35.0732 13.8123C34.6745 13.4226 34.4029 12.926 34.293 12.3854C34.1831 11.8447 34.2395 11.2844 34.4552 10.7751C34.671 10.2659 35.0365 9.8306 35.5052 9.52437C35.9741 9.21814 36.5251 9.05469 37.0891 9.05469C38.6629 9.08325 39.9399 10.303 39.9399 11.8416Z" fill="var(--fill-0, #110846)"/>
<path id="Vector_18" fill-rule="evenodd" clip-rule="evenodd" d="M44.809 17.6463C44.809 18.1976 44.6419 18.7364 44.3285 19.1947C44.0154 19.653 43.5701 20.0102 43.0493 20.2211C42.5283 20.4321 41.955 20.4873 41.4021 20.3798C40.8491 20.2722 40.3411 20.0067 39.9424 19.617C39.5438 19.2273 39.2722 18.7306 39.1623 18.19C39.0522 17.6495 39.1086 17.0891 39.3245 16.5798C39.5403 16.0706 39.9056 15.6353 40.3745 15.3291C40.8432 15.0228 41.3944 14.8594 41.9582 14.8594C42.7142 14.8596 43.4392 15.1533 43.9738 15.6759C44.5084 16.1985 44.8088 16.9073 44.809 17.6463Z" fill="var(--fill-0, #110846)"/>
<path id="Vector_19" fill-rule="evenodd" clip-rule="evenodd" d="M44.5435 7.11478C44.5435 7.58558 44.4007 8.0458 44.1332 8.43725C43.8658 8.82871 43.4855 9.13381 43.0405 9.31399C42.5956 9.49415 42.1061 9.54129 41.6337 9.44944C41.1613 9.3576 40.7275 9.13088 40.3871 8.79798C40.0464 8.46508 39.8145 8.04093 39.7207 7.57918C39.6266 7.11742 39.6749 6.6388 39.8591 6.20383C40.0435 5.76887 40.3556 5.39712 40.756 5.13555C41.1564 4.87399 41.6272 4.73438 42.1087 4.73438C42.7536 4.73714 43.3714 4.98881 43.8273 5.43462C44.2833 5.88043 44.5407 6.48431 44.5435 7.11478Z" fill="var(--fill-0, #110846)"/>
<path id="Vector_20" fill-rule="evenodd" clip-rule="evenodd" d="M48.4324 12.4507C48.4324 12.9215 48.2896 13.3817 48.022 13.7732C47.7544 14.1646 47.3741 14.4697 46.9292 14.6499C46.4842 14.8301 45.9947 14.8772 45.5223 14.7854C45.0501 14.6935 44.6162 14.4668 44.2757 14.1339C43.9351 13.801 43.7032 13.3769 43.6093 12.9151C43.5153 12.4534 43.5635 11.9747 43.7479 11.5398C43.9321 11.1048 44.2443 10.7331 44.6446 10.4715C45.045 10.2099 45.5159 10.0703 45.9973 10.0703C46.6424 10.0731 47.26 10.3247 47.716 10.7706C48.1721 11.2164 48.4296 11.8202 48.4324 12.4507Z" fill="var(--fill-0, #110846)"/>
</g>
<defs>
<clipPath id="clip0_7350_21418">
<rect width="187" height="35" fill="white"/>
</clipPath>
</defs>
</svg>
