<svg preserveAspectRatio="none" width="100%" height="100%" overflow="visible" style="display: block;" viewBox="0 0 176 32.2289" fill="none" xmlns="http://www.w3.org/2000/svg">
<g id="VF-Logo-Color-Horizontal 1 [Vectorized]" clip-path="url(#clip0_7350_21336)">
<path id="Vector" d="M116.481 9.37603L131.373 9.36719C131.385 10.0726 131.372 10.7972 131.369 11.5041C130.552 11.386 128.08 11.44 127.105 11.44C124.322 11.4327 121.539 11.4395 118.757 11.4606C118.74 14.2052 118.743 16.9499 118.763 19.6944C122.104 19.746 125.984 19.7586 129.311 19.6837L129.363 19.7229C129.494 19.9894 129.447 21.2499 129.446 21.627C128.966 21.6044 128.448 21.5946 127.967 21.6C124.918 21.6344 121.814 21.5095 118.77 21.6317C118.694 25.0137 118.737 28.6736 118.769 32.0655C118.073 32.0267 117.217 32.0466 116.505 32.0465C116.424 29.8222 116.496 27.0785 116.497 24.8163L116.481 9.37603Z" fill="var(--fill-0, #110846)"/>
<path id="Vector_2" d="M61.4712 8.51251C61.781 8.47859 62.376 8.48332 62.7081 8.47656L62.7159 10.4155C59.0582 10.5722 59.5255 14.7171 59.5499 17.36C60.6038 17.3759 61.6579 17.3756 62.7118 17.3591L62.7106 19.1599L59.5405 19.1563L59.5461 32.0099C59.305 32.0938 57.6885 32.0568 57.3228 32.0546L57.3194 19.1549L55.0098 19.1562L55.0195 17.3615C55.754 17.3841 56.581 17.3676 57.3227 17.369C57.2974 13.7749 57.0363 9.42854 61.4712 8.51251Z" fill="var(--fill-0, #110846)"/>
<path id="Vector_3" d="M148.49 15.3081C148.806 15.2809 149.355 15.2922 149.69 15.2891L149.707 17.4045C147.812 17.4523 146.384 18.0255 145.019 19.351C143.255 21.0644 143.651 23.0075 143.648 25.2515C143.635 27.5205 143.643 29.7897 143.672 32.0586C142.974 32.0222 142.082 32.0413 141.369 32.0382C141.394 31.2654 141.381 30.4169 141.385 29.638L141.377 15.4181C142.081 15.4363 142.784 15.4253 143.487 15.3854C143.488 16.583 143.538 18.2602 143.439 19.4193C143.714 18.8245 144.052 18.2604 144.446 17.7361C145.554 16.2557 146.675 15.5691 148.49 15.3081Z" fill="var(--fill-0, #110846)"/>
<path id="Vector_4" d="M45.6051 15.3046C45.8874 15.2697 46.4703 15.303 46.7813 15.3132L46.7846 17.4014C44.8623 17.5088 43.529 17.9604 42.1003 19.3085C40.2089 21.0933 40.6531 23.2787 40.6582 25.6346L40.6544 32.0633C39.9418 32.0423 39.157 32.0552 38.4385 32.0526L38.4367 29.5734L38.4297 15.4293L40.4928 15.4232L40.4926 19.3237C40.7857 18.7658 41.125 18.2335 41.5071 17.7322C42.6319 16.2853 43.7935 15.5322 45.6051 15.3046Z" fill="var(--fill-0, #110846)"/>
<path id="Vector_5" d="M65.2897 15.4414L67.559 15.4297L67.5509 32.0881C67.0471 32.0342 65.8553 32.0581 65.3054 32.0564C65.2156 26.5932 65.3003 20.9258 65.2897 15.4414Z" fill="var(--fill-0, #110846)"/>
<path id="Vector_6" d="M136.642 15.4141L136.754 15.4638C136.819 15.7471 136.782 19.1751 136.782 19.7602L136.794 32.0565L134.74 32.0455L134.618 31.9973C134.539 31.6892 134.575 28.255 134.575 27.7524L134.576 15.4269C135.265 15.4328 135.954 15.4285 136.642 15.4141Z" fill="var(--fill-0, #110846)"/>
<path id="Vector_7" d="M49.6113 15.4377L51.8252 15.4297L51.8185 32.0894C51.2604 32.0309 50.2198 32.0598 49.619 32.0607L49.6113 15.4377Z" fill="var(--fill-0, #110846)"/>
<path id="Vector_8" d="M65.2969 8.75386L67.5539 8.75L67.5535 12.0219L65.2984 12.024L65.2969 8.75386Z" fill="var(--fill-0, #110846)"/>
<path id="Vector_9" d="M49.6166 8.75361L51.8208 8.75L51.8219 12.0205L49.6152 12.0242L49.6166 8.75361Z" fill="var(--fill-0, #110846)"/>
<path id="Vector_10" d="M134.578 8.7512C135.308 8.76494 136.058 8.74897 136.789 8.74219L136.786 12.0221L134.578 12.0167V8.7512Z" fill="var(--fill-0, #110846)"/>
<path id="Vector_11" d="M103.931 8.75223L106.135 8.75L106.138 22.42C106.138 24.7119 106.116 27.0094 106.167 29.2998C106.169 29.4044 106.24 29.7624 106.334 29.7932C107.044 30.027 107.169 31.564 106.79 32.0989L106.566 32.1925H105.808C103.89 31.6636 104.204 30.5782 104.235 28.9109C102.817 30.8705 101.943 31.3392 99.7805 32.1925H96.2003C93.6007 31.1942 92.0074 30.1368 90.8078 27.4445C89.8143 25.1626 89.7696 22.5792 90.6857 20.2647C93.049 14.1489 100.681 13.2289 103.969 18.8625C103.798 15.9657 103.928 11.7468 103.931 8.75223ZM98.7157 30.4166C100.532 30.194 101.955 29.4319 103.146 28.0197C104.366 26.5728 103.795 25.3759 103.913 23.7853C104.105 21.2373 103.867 20.0864 101.742 18.4312C100.567 17.5161 99.27 16.997 97.7231 17.1093C93.9445 17.7318 91.857 21.3287 92.4681 24.9694C92.7542 26.7271 93.7279 28.299 95.176 29.3381C96.2794 30.119 97.3794 30.4103 98.7157 30.4166Z" fill="var(--fill-0, #110846)"/>
<path id="Vector_12" d="M77.7327 32.1936C75.2052 31.2611 73.4053 30.2054 72.2028 27.6054C71.1806 25.3835 71.0726 22.8495 71.9021 20.5489C72.6559 18.4907 74.1954 16.8149 76.1835 15.8885C78.2234 14.9705 80.5416 14.8856 82.6433 15.6518C84.6444 16.4074 86.2607 17.9301 87.1329 19.8815C87.8204 21.3888 88.0275 22.92 87.9115 24.5671L73.6862 24.5674C74.0862 26.6812 74.6795 28.3688 76.5815 29.662C77.8633 30.5356 79.4441 30.8546 80.9648 30.5466C82.748 30.2038 84.0138 29.2263 84.8852 27.6543L86.8158 28.2025C85.9496 30.0644 84.6912 31.1277 82.7431 31.8387C82.3949 31.9628 82.0446 32.0811 81.6923 32.1936H77.7327ZM73.5961 22.8864L80.5673 22.8736C82.1573 22.8739 84.3044 22.8071 85.8471 22.8832C85.2964 19.252 82.9387 16.5735 79.0439 16.9434C77.5217 17.0889 76.1194 17.8317 75.1447 19.0086C74.1943 20.1606 73.8594 21.4488 73.5961 22.8864Z" fill="var(--fill-0, #110846)"/>
<path id="Vector_13" d="M25.0486 32.1953C22.5438 31.3355 20.7607 30.2186 19.5412 27.7176C18.4727 25.4989 18.3371 22.9454 19.1645 20.6262C19.8839 18.5933 21.3681 16.9205 23.3018 15.9631C25.316 15.0053 27.6248 14.8707 29.7369 15.5877C33.4186 16.8691 35.6769 20.7351 35.1597 24.5707L21.0005 24.5698C21.1552 26.4681 21.9569 28.0206 23.3791 29.2835C25.9875 31.5995 30.6338 30.8696 32.1776 27.6649C32.7509 27.8175 33.5309 28.0552 34.0939 28.168C33.2265 30.4822 31.211 31.4663 29.0148 32.1953H25.0486ZM20.9456 22.8896C23.2304 22.872 25.5154 22.8672 27.8003 22.8753L33.1211 22.8698C32.6234 19.2638 30.1767 16.5614 26.3418 16.9421C24.7313 17.1338 23.3451 17.8346 22.3344 19.123C21.4999 20.2088 21.0155 21.5225 20.9456 22.8896Z" fill="var(--fill-0, #110846)"/>
<path id="Vector_14" d="M8.33356 29.2119C8.96913 27.436 10.0299 25.4219 10.9297 23.7624C15.1438 16.0599 20.6083 9.10941 27.1004 3.19431C27.4091 2.91324 30.0882 0.494117 30.3736 0.445312L30.4204 0.490966C23.3105 7.51323 17.3751 15.6303 12.8409 24.5323C12.0007 26.1706 11.1953 27.8265 10.4252 29.4986C10.0547 30.3062 9.65998 31.298 9.26836 32.0693C8.62941 32.0629 7.99047 32.0609 7.35152 32.0636C6.63976 30.7234 5.9157 28.7544 5.30711 27.2977L1.50226 18.212C1.16673 17.4173 0.396873 15.2063 0 14.5795V14.4906C0.912622 14.7066 1.72642 14.958 2.62348 15.235C3.11272 16.1785 3.52834 17.3686 3.91852 18.3729C5.32427 21.9913 6.96481 25.5851 8.33356 29.2119Z" fill="var(--fill-0, #110846)"/>
<path id="Vector_15" d="M151.965 28.368C154.29 29.9545 156.327 31.0569 159.247 30.5592C161.039 30.2538 162.64 29.134 162.272 27.1225C162.162 26.5236 161.797 26.0822 161.309 25.7521C158.928 24.1051 152.441 24.5154 151.831 21.0285C151.64 19.8756 151.838 18.5205 152.495 17.5447C153.4 16.1985 154.748 15.5456 156.322 15.2909C159.309 14.8081 161.768 15.4115 164.057 17.3725C163.702 17.8924 163.327 18.2939 162.964 18.7877C160.624 16.1714 154.004 15.8248 153.905 19.7893C153.799 24.0543 165.119 21.6635 164.506 27.5567C164.193 30.572 162.809 31.314 160.232 32.1952H155.747C153.648 31.5596 152.693 31.3091 150.98 29.86C151.263 29.4402 151.685 28.7371 151.965 28.368Z" fill="var(--fill-0, #110846)"/>
<path id="Vector_16" d="M168.617 9.82031C169.369 9.8277 170.167 9.84933 170.915 9.82495C170.901 11.6915 170.899 13.5581 170.906 15.4247C172.128 15.4291 173.495 15.4623 174.704 15.396L174.714 17.1771C173.457 17.1757 172.169 17.1588 170.915 17.1768L170.899 24.9218C170.898 25.9432 170.843 28.2034 170.974 29.1583C172.178 30.7551 173.89 30.2396 175.393 29.4206C175.595 30.0371 175.792 30.6551 175.985 31.2745C175.141 31.6499 174.188 31.9403 173.296 32.1946H171.206C168.168 31.0365 168.699 29.5707 168.619 26.6944C168.606 26.2259 168.619 25.7433 168.619 25.2737L168.617 17.1711L166.327 17.1746L166.318 15.4178C167.081 15.4224 167.87 15.4382 168.63 15.4161L168.617 9.82031Z" fill="var(--fill-0, #110846)"/>
</g>
<defs>
<clipPath id="clip0_7350_21336">
<rect width="176" height="32.2289" fill="white"/>
</clipPath>
</defs>
</svg>
