<svg preserveAspectRatio="none" width="100%" height="100%" overflow="visible" style="display: block;" viewBox="0 0 181 30" fill="none" xmlns="http://www.w3.org/2000/svg">
<g id="Layer_1" clip-path="url(#clip0_7350_21354)">
<path id="Vector" d="M169.396 17.7656L158.152 17.794L158.186 22.0429L170.592 22.0551L170.596 27.6877L150.553 27.6897V3.77344H170.288L170.292 9.08907L158.156 9.10329V12.6044L169.376 12.6206L169.396 17.7656Z" fill="var(--fill-0, #110846)"/>
<path id="Vector_2" d="M179.603 8.73739C178.476 9.38762 177.269 9.31447 176.286 8.66424C175.303 8.01401 174.846 6.84156 175.033 5.57158C175.25 4.09841 176.612 3.11493 177.995 3.12509C179.493 3.13525 180.842 4.16749 180.98 5.71382C181.091 6.9838 180.732 8.08716 179.603 8.73739ZM178.839 4.60437C179.303 4.71409 179.256 5.2424 179.313 5.50859C179.388 5.852 178.991 6.11412 178.831 6.38234L179.546 7.82097C180.509 6.75419 180.453 5.38261 179.534 4.52106C178.616 3.6595 177.267 3.68592 176.379 4.59827C175.491 5.51062 175.473 6.93707 176.529 7.75798L176.556 4.52715C177.31 4.58811 178.06 4.42149 178.837 4.60437H178.839ZM178.125 5.3501C177.959 5.2038 177.602 5.30133 177.49 5.32368C177.361 5.68944 177.535 5.76056 177.843 5.77478C178.115 5.78494 178.439 5.62645 178.123 5.3501H178.125ZM179.275 7.94086C177.699 7.94086 178.36 6.68307 177.478 6.65462L177.458 7.85755L176.694 7.93476C177.486 8.51388 178.51 8.51997 179.275 7.94289V7.94086Z" fill="var(--fill-0, #110846)"/>
<g id="Group">
<path id="Vector_3" d="M136.253 22.242C139.243 22.051 139.868 20.4721 140.663 17.7066L147.292 19.6857C146.181 24.3227 143.507 27.2609 138.848 27.8502L136.557 28.1387C136.293 28.1712 132.53 27.7141 131.886 27.517C130.458 27.078 129.157 26.564 128.07 25.5297C126.235 23.7863 124.828 21.6771 124.457 19.1168C124.376 18.558 124.199 18.0094 124.151 17.4485C123.94 15.0468 124.08 14.2584 124.471 12.0659C125.189 8.05272 128.007 4.91332 131.975 3.90547C134.913 3.15974 137.198 3.21053 140.117 3.85873C143.138 4.52928 145.342 6.57141 146.475 9.36943L147.023 10.7187C147.027 11.1271 143.448 11.7611 142.797 11.883C141.97 12.0374 141.157 12.4296 140.273 12.2569C139.697 9.88149 137.492 8.63996 135.15 9.22516C133.333 9.67829 132.074 11.2632 131.938 13.1672C131.918 13.4415 131.675 13.6853 131.687 13.9861C131.74 15.2093 131.612 16.394 131.738 17.605C131.79 18.1049 131.987 18.6088 132.064 19.0843C132.403 21.1792 134.221 22.374 136.251 22.244L136.253 22.242Z" fill="var(--fill-0, #110846)"/>
<g id="Group_2">
<path id="Vector_4" d="M71.921 9.9919C72.3143 7.80143 72.7746 6.01736 73.0422 3.78423L80.1181 3.75781C80.2357 4.30238 80.0472 4.73925 79.9417 5.23302L79.5403 7.12072L79.0902 9.11002C78.9219 9.84966 78.7901 10.5934 78.6158 11.3635L78.0866 13.7165L75.3028 26.3513C75.2217 26.717 75.2075 27.54 74.7777 27.6335L67.9978 27.7086C67.5639 27.5664 67.5599 27.225 67.4524 26.8471L63.6225 13.3711L59.5857 27.668L52.7754 27.6985C52.4672 27.6985 52.2462 27.5136 52.1814 27.1885L47.4147 5.62926C47.2708 4.97699 47.0234 4.48729 47.0356 3.7822L54.2109 3.78626C54.4744 5.43622 54.7157 6.52536 55.0056 8.04527L55.9951 13.2146L56.5972 16.2687L59.4742 6.07629C59.7013 5.27366 59.7723 4.48526 60.2366 3.77L67.0429 3.76594C67.4565 4.47916 67.5497 5.21067 67.7667 5.98485L70.591 16.1203C70.5646 16.354 70.6984 16.1853 70.887 16.0695C70.816 15.3116 71.3513 13.1354 71.5195 12.1986L71.9169 9.99393L71.921 9.9919Z" fill="var(--fill-0, #110846)"/>
<path id="Vector_5" d="M118.994 26.2883C117.86 27.3815 116.526 27.7432 115.121 28.0155C113.901 28.2512 111.454 27.6782 110.602 26.8572L109.065 25.378L108.98 27.6721L102.654 27.668V3.78626L109.485 3.75781L109.521 11.6683C112.295 9.29696 116.22 9.17301 118.949 11.4895C119.971 12.3571 120.699 13.43 121.078 14.6918C121.289 15.3929 121.581 16.1366 121.613 16.8762C121.672 18.2295 121.761 19.5726 121.557 20.8731C121.232 22.9355 120.506 24.8253 118.994 26.2842V26.2883ZM113.854 22.3503C115.296 21.1332 115.699 15.5046 112.709 15.0901C111.498 14.9235 110.282 15.5412 109.838 16.7746C109.128 18.7477 109.398 22.1939 111.306 22.775C112.22 23.0534 113.074 23.0087 113.854 22.3483V22.3503Z" fill="var(--fill-0, #110846)"/>
<path id="Vector_6" d="M93.0633 22.379C94.1926 22.2104 95.1779 22.5639 96.2626 22.6371C96.8344 22.6757 97.3615 22.6818 97.9434 22.8057C98.5253 22.9297 99.2532 22.5903 99.7053 23.0394C99.9547 23.2873 99.4863 23.6856 99.3404 23.9233C97.7792 26.445 95.0461 27.973 92.0759 27.8552C90.7316 28.3388 89.507 28.0685 88.1648 27.9283C86.1049 27.7109 84.0693 27.081 82.6501 25.4879C80.3387 22.8931 80.065 20.7758 80.3347 17.3194C80.6043 13.863 83.382 10.9512 86.8652 10.2238C87.3234 10.1283 87.7898 9.95353 88.2297 9.91898C90.4742 9.74627 91.646 9.80113 93.7506 10.2461C97.5643 11.0508 99.9223 14.2511 100.101 18.0956C100.139 18.9348 100.37 19.7497 100.137 20.6681L87.1693 20.6823C86.997 21.1131 87.2687 21.4504 87.3701 21.7979C87.8567 23.4702 89.6307 24.2362 91.0155 23.8156C91.8143 23.5738 92.674 23.3239 93.0633 22.3811V22.379ZM87.2058 17.3032L93.2173 17.3296C93.2761 16.6875 93.118 16.1307 92.8402 15.5252C92.3313 14.4198 90.9303 13.7736 89.7321 14.0215C88.5338 14.2694 87.6215 15.066 87.3255 16.3034C87.2646 16.5574 86.9625 17.0918 87.2079 17.3011L87.2058 17.3032Z" fill="var(--fill-0, #110846)"/>
</g>
</g>
<g id="Group_3">
<path id="Vector_7" d="M16.9721 22.5757C16.4267 22.6793 15.8408 22.5899 15.3886 22.7058C14.4823 22.9354 13.6977 22.9577 12.7711 23.0106C10.0989 23.1609 8.10184 23.2442 5.4215 22.7606C3.82992 22.4741 2.287 22.0758 1.0401 21.0416C-0.0446111 20.1414 -0.30413 18.7861 0.379134 17.5222C1.39288 15.6528 3.06556 14.3422 4.86191 13.19C5.76009 12.615 6.53662 11.9688 7.60916 11.6762C7.48751 12.0786 7.16717 12.2411 6.8894 12.4931C5.63439 13.6391 4.04686 15.5979 5.46205 17.2072C6.08043 17.9103 6.9482 18.2496 7.77947 18.526L7.59699 17.0244C7.42466 15.6203 7.41047 14.334 7.6051 12.8873C8.44854 6.5902 13.497 1.30099 19.77 0.299224C20.6804 0.152922 21.6151 -0.0380827 22.4909 0.00662064C26.3432 0.203722 29.3256 1.3274 32.2492 3.75561C32.8838 4.28392 33.3522 4.84474 33.8996 5.48481C35.3574 7.18963 36.3062 9.25005 36.8922 11.4466C37.0706 12.1192 37.0382 12.804 37.3727 13.4318C38.4432 12.8791 39.386 12.3183 40.3531 11.7514C41.1276 11.2983 41.7338 10.7212 42.4434 10.1766C43.4754 9.38619 44.0958 8.29706 44.7629 7.06975C45.2475 7.85612 45.0265 8.72377 44.7284 9.5711C42.6442 15.4679 28.766 20.1556 23.1742 21.3647L21.0271 21.8279C20.1634 22.0149 19.3422 22.1226 18.4623 22.2912L16.9721 22.5757Z" fill="var(--fill-0, #110846)"/>
<path id="Vector_8" d="M20.6266 29.9617C17.0197 29.3745 13.7331 27.9013 11.3184 25.0342C13.0863 24.7213 14.8077 24.6644 16.5979 24.4693C17.6583 24.3555 18.6416 23.9471 19.7284 24.0345C19.998 23.6809 20.3346 23.8191 20.7056 23.7398C26.0116 22.6263 31.1249 21.015 36.001 18.6782C36.3376 18.5177 36.5423 18.2759 36.958 18.4181C35.4617 24.5811 30.4639 29.1388 24.1361 29.9272C22.9805 30.0715 21.8877 29.9475 20.6245 29.9617H20.6266Z" fill="var(--fill-0, #110846)"/>
</g>
</g>
<defs>
<clipPath id="clip0_7350_21354">
<rect width="181" height="30" fill="white"/>
</clipPath>
</defs>
</svg>
