<svg preserveAspectRatio="xMidYMid meet"  viewBox="0 0 16.25 17.5" fill="none" xmlns="http://www.w3.org/2000/svg">
<g id="Vector">
<path d="M16.25 13.75V12.5H14.9368C14.8562 12.1088 14.7009 11.7368 14.4794 11.4044L15.4106 10.4732L14.5269 9.58944L13.5956 10.5207C13.2632 10.2991 12.8912 10.1438 12.5 10.0632V8.75H11.25V10.0632C10.8588 10.1438 10.4868 10.2991 10.1544 10.5206L9.22319 9.58938L8.33944 10.4731L9.27069 11.4044C9.04913 11.7368 8.89379 12.1088 8.81319 12.5H7.5V13.75H8.81319C8.89378 14.1412 9.0491 14.5132 9.27063 14.8456L8.33938 15.7768L9.22313 16.6606L10.1544 15.7293C10.4868 15.9509 10.8588 16.1062 11.25 16.1868V17.5H12.5V16.1868C12.8912 16.1062 13.2632 15.9509 13.5956 15.7294L14.5268 16.6606L15.4106 15.7769L14.4793 14.8456C14.7009 14.5132 14.8562 14.1412 14.9368 13.75H16.25ZM11.875 15C11.5042 15 11.1417 14.89 10.8333 14.684C10.525 14.478 10.2846 14.1851 10.1427 13.8425C10.0008 13.4999 9.96368 13.1229 10.036 12.7592C10.1084 12.3955 10.287 12.0614 10.5492 11.7992C10.8114 11.537 11.1455 11.3584 11.5092 11.286C11.8729 11.2137 12.2499 11.2508 12.5925 11.3927C12.9351 11.5346 13.228 11.775 13.434 12.0833C13.64 12.3916 13.75 12.7542 13.75 13.125C13.7495 13.6221 13.5517 14.0987 13.2002 14.4502C12.8487 14.8017 12.3721 14.9995 11.875 15Z" fill="#8740FF"/>
<path d="M6.25 15.4169L4.2285 14.339C3.3281 13.86 2.57512 13.1449 2.05038 12.2703C1.52564 11.3958 1.24895 10.3949 1.25 9.375V1.25H13.75V7.5H15V1.25C14.9996 0.918596 14.8678 0.600875 14.6335 0.366537C14.3991 0.132199 14.0814 0.000380458 13.75 0H1.25C0.9186 0.000380458 0.600879 0.132199 0.366541 0.366537C0.132203 0.600875 0.000384506 0.918596 4.04735e-06 1.25V9.375C-0.00134941 10.6215 0.336773 11.8448 0.97808 12.9136C1.61939 13.9825 2.53966 14.8565 3.64013 15.4419L6.25 16.8335V15.4169Z" fill="#8740FF"/>
</g>
</svg>
