<svg preserveAspectRatio="xMidYMid meet"  viewBox="0 0 17.5 17.5" fill="none" xmlns="http://www.w3.org/2000/svg">
<g id="Vector">
<path d="M17.5 17.5H12.5V12.5H17.5V17.5ZM13.75 16.25H16.25V13.75H13.75V16.25Z" fill="#8740FF"/>
<path d="M11.25 15.625H3.75C2.75544 15.625 1.80161 15.2299 1.09835 14.5267C0.395088 13.8234 0 12.8696 0 11.875C0 10.8804 0.395088 9.92661 1.09835 9.22335C1.80161 8.52009 2.75544 8.125 3.75 8.125H5V9.375H3.75C3.08696 9.375 2.45107 9.63839 1.98223 10.1072C1.51339 10.5761 1.25 11.212 1.25 11.875C1.25 12.538 1.51339 13.1739 1.98223 13.6428C2.45107 14.1116 3.08696 14.375 3.75 14.375H11.25V15.625Z" fill="#8740FF"/>
<path d="M11.25 11.25H6.25V6.25H11.25V11.25ZM7.5 10H10V7.5H7.5V10Z" fill="#8740FF"/>
<path d="M13.75 9.375H12.5V8.125H13.75C14.413 8.125 15.0489 7.86161 15.5178 7.39277C15.9866 6.92393 16.25 6.28804 16.25 5.625C16.25 4.96196 15.9866 4.32607 15.5178 3.85723C15.0489 3.38839 14.413 3.125 13.75 3.125H6.25V1.875H13.75C14.7446 1.875 15.6984 2.27009 16.4017 2.97335C17.1049 3.67661 17.5 4.63044 17.5 5.625C17.5 6.61956 17.1049 7.57339 16.4017 8.27665C15.6984 8.97991 14.7446 9.375 13.75 9.375Z" fill="#8740FF"/>
<path d="M5 5H0V0H5V5ZM1.25 3.75H3.75V1.25H1.25V3.75Z" fill="#8740FF"/>
</g>
</svg>
