<svg preserveAspectRatio="none" width="100%" height="100%" overflow="visible" style="display: block;" viewBox="0 0 76 76" fill="none" xmlns="http://www.w3.org/2000/svg">
<g id="transactional--trust 1" clip-path="url(#clip0_7336_21880)">
<path id="transactional--trust_1_" d="M71.4448 23.408L69.8773 24.092C71.6846 28.2245 72.618 32.6159 72.7273 37.145H32.9175V33.8533C32.9175 29.6614 30.4428 25.9825 26.7116 24.3628C28.0369 23.1919 28.8325 21.4914 28.8325 19.665C28.8325 16.207 26.0205 13.395 22.5625 13.395C19.1045 13.395 16.2925 16.207 16.2925 19.665C16.2925 21.489 17.0881 23.1895 18.4134 24.3628C14.6846 25.9825 12.2075 29.6614 12.2075 33.8533V37.145H3.27275C3.72638 18.6556 18.6556 3.72638 37.145 3.27275V30.875H38.855V3.27988C48.9606 3.52213 58.216 8.0275 64.6641 15.7724H57V17.4824H67.355V7.125H65.645V14.2856C58.7005 6.17263 48.7801 1.52 38 1.52C17.8838 1.52 1.52 17.8838 1.52 38C1.52 43.073 2.54125 47.9821 4.55525 52.5944L6.12275 51.908C4.31538 47.7779 3.382 43.3865 3.27275 38.855H72.7249C72.5088 47.6948 68.9819 55.7128 63.3341 61.7381C62.4554 58.8478 60.3488 56.4561 57.5819 55.2425C58.9119 54.0693 59.7099 52.3664 59.7099 50.5424C59.7099 47.0844 56.8955 44.27 53.4375 44.27C49.9795 44.27 47.1651 47.0844 47.1651 50.5424C47.1651 52.3664 47.9608 54.0669 49.2884 55.2401C45.5596 56.8575 43.0825 60.5364 43.0825 64.7306V72.3568C41.6955 72.561 40.2895 72.6916 38.855 72.7273V45.125H37.145V72.7201C27.0394 72.4779 17.784 67.9749 11.3359 60.23H19V58.52H8.645V68.875H10.355V61.7096C17.2971 69.8274 27.2199 74.48 38 74.48C58.1163 74.48 74.48 58.1139 74.48 38C74.48 32.927 73.4588 28.0179 71.4448 23.408ZM44.7925 64.7283C44.7925 60.7026 47.5214 57.247 51.4354 56.3208C51.7916 56.2353 52.0553 55.9336 52.0885 55.5679C52.1241 55.2045 51.9199 54.8578 51.585 54.7081C49.9391 53.9743 48.8751 52.3403 48.8751 50.5424C48.8751 48.0273 50.92 45.9824 53.4351 45.9824C55.9503 45.9824 57.9951 48.0273 57.9951 50.5424C57.9951 52.3403 56.9335 53.9743 55.2853 54.7081C54.948 54.8578 54.7461 55.2045 54.7818 55.5679C54.8174 55.9336 55.0786 56.2353 55.4349 56.3208C58.7623 57.1093 61.3011 59.8334 61.9139 63.1703C57.2399 67.6139 51.3546 70.7869 44.7901 72.0931L44.7925 64.7283ZM13.9175 33.8533C13.9175 29.83 16.6487 26.372 20.5604 25.4434C20.9166 25.3579 21.1803 25.0563 21.2135 24.6905C21.2468 24.3271 21.0449 23.9804 20.71 23.8308C19.0641 23.0993 18.0025 21.4629 18.0025 19.665C18.0025 17.1499 20.0474 15.105 22.5625 15.105C25.0776 15.105 27.1225 17.1499 27.1225 19.665C27.1225 21.4629 26.0585 23.0969 24.4103 23.8284C24.0754 23.978 23.8735 24.3224 23.9068 24.6881C23.94 25.0539 24.2036 25.3555 24.5599 25.441C28.4715 26.3696 31.2051 29.8276 31.2051 33.8509V37.1426H13.9175V33.8533Z" fill="var(--fill-0, #F5F5F5)"/>
<g id="_Transparent_Rectangle">
</g>
</g>
<defs>
<clipPath id="clip0_7336_21880">
<rect width="76" height="76" fill="white"/>
</clipPath>
</defs>
</svg>
