<svg preserveAspectRatio="xMidYMid meet"  viewBox="0 0 15 17.5002" fill="none" xmlns="http://www.w3.org/2000/svg">
<g id="Vector">
<path d="M10 15.7377L8.38125 14.119L7.5 15.0002L10 17.5002L15 12.5002L14.1188 11.619L10 15.7377Z" fill="#8740FF"/>
<path d="M5.625 16.2502H1.25V1.25021H6.25V5.00021C6.25096 5.33144 6.38296 5.64883 6.61717 5.88304C6.85139 6.11725 7.16877 6.24926 7.5 6.25021H11.25V10.0002H12.5V5.00021C12.5022 4.91807 12.4866 4.83642 12.4543 4.76089C12.4219 4.68536 12.3735 4.61774 12.3125 4.56271L7.9375 0.187715C7.88248 0.12667 7.81487 0.0782922 7.73934 0.0459206C7.66381 0.0135489 7.58215 -0.00204516 7.5 0.000214827H1.25C0.918774 0.00117123 0.601386 0.133174 0.367173 0.367388C0.132959 0.601601 0.000956402 0.918988 0 1.25021V16.2502C0.000956402 16.5814 0.132959 16.8988 0.367173 17.133C0.601386 17.3673 0.918774 17.4993 1.25 17.5002H5.625V16.2502ZM7.5 1.50021L11 5.00021H7.5V1.50021Z" fill="#8740FF"/>
</g>
</svg>
