<svg preserveAspectRatio="none" width="100%" height="100%" overflow="visible" style="display: block;" viewBox="0 0 76 76" fill="none" xmlns="http://www.w3.org/2000/svg">
<g id="trust 1" clip-path="url(#clip0_7336_21892)">
<g id="trust">
<path id="trust_1_" d="M26.7401 53.086C20.5342 53.086 15.4375 57.9358 15.1383 64.1298L15.124 64.4599L7.72825 71.8556L6.51937 70.6444L13.4496 63.7118C13.9555 56.7673 19.7291 51.3736 26.7378 51.3736H45.144C46.9253 51.3736 48.374 52.8224 48.374 54.6036C48.374 54.7651 48.3669 54.929 48.3526 55.0881L60.2466 45.4243C61.7073 43.9494 64.5501 43.89 66.139 45.4836C66.9346 46.2769 67.374 47.3338 67.374 48.4619C67.374 49.5876 66.9346 50.6445 66.139 51.4425L51.6467 65.9347C50.7727 66.8064 49.6161 67.374 48.3859 67.5308L31.2906 69.6659L29.1128 71.8533L27.9015 70.6468L30.495 68.0414L48.1721 65.8303C49.0248 65.7234 49.8299 65.3291 50.4355 64.7211L64.9277 50.2289C65.4004 49.7563 65.664 49.1269 65.664 48.4595C65.664 47.7898 65.4051 47.1628 64.9301 46.6901C63.9825 45.7425 62.3366 45.7449 61.389 46.6901L46.322 58.9356L46.3196 58.9332C45.3554 59.7289 44.1156 60.2063 42.7714 60.2063H30.894V58.4939H42.7714C44.916 58.4939 46.6616 56.7483 46.6616 54.6013C46.6616 53.7605 45.98 53.0789 45.1416 53.0789H26.7401V53.086ZM49.875 41.23H26.125V39.52H49.875V41.23ZM55.48 35.625H53.77V11.875H55.4824L55.48 35.625ZM22.23 35.625H20.52V11.875H22.23C22.23 11.875 22.23 35.625 22.23 35.625ZM49.875 7.98H26.125V6.27H49.875V7.98Z" fill="var(--fill-0, #F5F5F5)"/>
</g>
<g id="_Transparent_Rectangle">
</g>
</g>
<defs>
<clipPath id="clip0_7336_21892">
<rect width="76" height="76" fill="white"/>
</clipPath>
</defs>
</svg>
