<svg preserveAspectRatio="xMidYMid meet"  viewBox="0 0 16.25 16.25" fill="none" xmlns="http://www.w3.org/2000/svg">
<g id="Vector">
<path d="M5.625 9.375H3.125V10.625H5.625V9.375Z" fill="#8740FF"/>
<path d="M9.375 9.375H6.875V10.625H9.375V9.375Z" fill="#8740FF"/>
<path d="M5.625 6.875H3.125V8.125H5.625V6.875Z" fill="#8740FF"/>
<path d="M9.375 11.875H6.875V13.125H9.375V11.875Z" fill="#8740FF"/>
<path d="M13.125 6.875H10.625V8.125H13.125V6.875Z" fill="#8740FF"/>
<path d="M13.125 11.875H10.625V13.125H13.125V11.875Z" fill="#8740FF"/>
<path d="M15 0H1.25C0.918606 0.000413467 0.600904 0.132242 0.366573 0.366573C0.132242 0.600904 0.000413467 0.918606 0 1.25V15C0.000413467 15.3314 0.132242 15.6491 0.366573 15.8834C0.600904 16.1178 0.918606 16.2496 1.25 16.25H15C15.3314 16.2496 15.6491 16.1178 15.8834 15.8834C16.1178 15.6491 16.2496 15.3314 16.25 15V1.25C16.2496 0.918606 16.1178 0.600904 15.8834 0.366573C15.6491 0.132242 15.3314 0.000413467 15 0ZM15 1.25V3.75H1.25V1.25H15ZM1.25 15V5H15V15H1.25Z" fill="#8740FF"/>
</g>
</svg>
