<svg preserveAspectRatio="xMidYMid meet"  viewBox="0 0 16.25 17.5" fill="none" xmlns="http://www.w3.org/2000/svg">
<g id="Vector">
<path d="M15 11.875V10C15 9.33696 14.7366 8.70107 14.2678 8.23223C13.7989 7.76339 13.163 7.5 12.5 7.5C11.837 7.5 11.2011 7.76339 10.7322 8.23223C10.2634 8.70107 10 9.33696 10 10V11.875C9.66861 11.8754 9.3509 12.0072 9.11657 12.2416C8.88224 12.4759 8.75041 12.7936 8.75 13.125V16.25C8.75041 16.5814 8.88224 16.8991 9.11657 17.1334C9.3509 17.3678 9.66861 17.4996 10 17.5H15C15.3314 17.4996 15.6491 17.3678 15.8834 17.1334C16.1178 16.8991 16.2496 16.5814 16.25 16.25V13.125C16.2496 12.7936 16.1178 12.4759 15.8834 12.2416C15.6491 12.0072 15.3314 11.8754 15 11.875ZM11.25 10C11.25 9.66848 11.3817 9.35054 11.6161 9.11612C11.8505 8.8817 12.1685 8.75 12.5 8.75C12.8315 8.75 13.1495 8.8817 13.3839 9.11612C13.6183 9.35054 13.75 9.66848 13.75 10V11.875H11.25V10ZM10 16.25V13.125H15V16.25H10Z" fill="#8740FF"/>
<path d="M12.1869 4.42813L7.94188 0.183125C7.82469 0.0659066 7.66575 3.53984e-05 7.5 0H1.25C0.918774 0.000956402 0.601386 0.13296 0.367173 0.367173C0.132959 0.601387 0.000956402 0.918774 0 1.25V16.25C0.000956402 16.5812 0.132959 16.8986 0.367173 17.1328C0.601386 17.367 0.918774 17.499 1.25 17.5H6.25V16.25H1.25V1.25H6.25V5C6.25038 5.3314 6.3822 5.64912 6.61654 5.88346C6.85088 6.1178 7.1686 6.24962 7.5 6.25H11.4325C11.6436 6.24997 11.8499 6.18735 12.0254 6.07006C12.2008 5.95278 12.3376 5.78609 12.4183 5.59108C12.4991 5.39607 12.5202 5.1815 12.479 4.9745C12.4378 4.76749 12.3361 4.57736 12.1869 4.42813ZM7.5 5V1.50881L10.9909 5H7.5Z" fill="#8740FF"/>
</g>
</svg>
