<svg preserveAspectRatio="xMidYMid meet"  viewBox="0 0 17.5 11.25" fill="none" xmlns="http://www.w3.org/2000/svg">
<path id="Vector" d="M11.25 0V1.25H15.3662L10 6.61619L7.31687 3.93313C7.25887 3.87506 7.18998 3.829 7.11416 3.79758C7.03834 3.76615 6.95707 3.74998 6.875 3.74998C6.79293 3.74998 6.71166 3.76615 6.63584 3.79758C6.56002 3.829 6.49113 3.87506 6.43313 3.93313L0 10.3662L0.883812 11.25L6.875 5.25881L9.55812 7.94188C9.61613 7.99994 9.68502 8.046 9.76084 8.07742C9.83666 8.10885 9.91793 8.12502 10 8.12502C10.0821 8.12502 10.1633 8.10885 10.2392 8.07742C10.315 8.046 10.3839 7.99994 10.4419 7.94188L16.25 2.13381V6.25H17.5V0H11.25Z" fill="var(--fill-0, #8740FF)"/>
</svg>
