<svg preserveAspectRatio="xMidYMid meet"  viewBox="0 0 15.625 17.5" fill="none" xmlns="http://www.w3.org/2000/svg">
<g id="Vector">
<path d="M10.625 15.7375L9.00625 14.1188L8.125 15L10.625 17.5L15.625 12.5L14.7438 11.6188L10.625 15.7375Z" fill="#8740FF"/>
<path d="M12.5 1.875H10.625V1.25C10.624 0.918774 10.492 0.601387 10.2578 0.367173C10.0236 0.13296 9.70623 0.000956402 9.375 0H4.375C4.04377 0.000956402 3.72639 0.13296 3.49217 0.367173C3.25796 0.601387 3.12596 0.918774 3.125 1.25V1.875H1.25C0.918774 1.87596 0.601386 2.00796 0.367173 2.24217C0.132959 2.47639 0.000956402 2.79377 0 3.125V16.25C0.000956402 16.5812 0.132959 16.8986 0.367173 17.1328C0.601386 17.367 0.918774 17.499 1.25 17.5H6.875V16.25H1.25V3.125H3.125V5H10.625V3.125H12.5V10H13.75V3.125C13.749 2.79377 13.617 2.47639 13.3828 2.24217C13.1486 2.00796 12.8312 1.87596 12.5 1.875ZM9.375 3.75H4.375V1.25H9.375V3.75Z" fill="#8740FF"/>
</g>
</svg>
