<svg preserveAspectRatio="xMidYMid meet"  viewBox="0 0 76 76" fill="none" xmlns="http://www.w3.org/2000/svg">
<g id="transparency-and-trust--02 2" clip-path="url(#clip0_7336_21897)">
<path id="transparency-and-trust--02_00000152955193575002034430000004340081065493240975_" d="M3.30363 40.2943L1.596 40.4059C1.54375 39.6103 1.52 38.8075 1.52 38C1.52 37.2091 1.54375 36.423 1.59363 35.644L3.30125 35.7532C3.25375 36.4966 3.23 37.2447 3.23 38C3.22763 38.7719 3.25375 39.5366 3.30363 40.2943ZM2.21825 45.1345C2.52463 46.683 2.94025 48.2339 3.45087 49.7373L5.07062 49.191C4.58375 47.7565 4.1895 46.2816 3.89738 44.802L2.21825 45.1345ZM22.553 6.84L21.7906 5.30812C20.3704 6.01587 18.9858 6.821 17.6724 7.7045L18.6248 9.12475C19.8788 8.28163 21.1992 7.5145 22.553 6.84ZM31.122 3.90925L30.7871 2.2325C29.2362 2.54363 27.6877 2.96163 26.1844 3.47463L26.7378 5.09437C28.1699 4.60275 29.6447 4.20613 31.122 3.90925ZM5.054 26.8565L3.43425 26.3102C2.926 27.8089 2.51275 29.3597 2.20638 30.9201L3.88312 31.2502C4.17762 29.7611 4.57188 28.2839 5.054 26.8565ZM9.05825 18.7198L7.638 17.7697C6.7545 19.095 5.95413 20.4844 5.25588 21.8999L6.78775 22.6575C7.45512 21.3061 8.2175 19.9809 9.05825 18.7198ZM17.7033 68.3169C19.0261 69.2051 20.4131 70.0102 21.8286 70.7085L22.5862 69.1766C21.2372 68.5093 19.9144 67.7421 18.6556 66.8966L17.7033 68.3169ZM5.27487 54.1358C5.97787 55.5608 6.78063 56.9478 7.65938 58.2588L9.082 57.3087C8.24363 56.0595 7.47888 54.7366 6.80913 53.3805L5.27487 54.1358ZM26.2319 72.5396C27.7376 73.0526 29.2885 73.4682 30.837 73.777L31.1719 72.0979C29.6946 71.8058 28.2174 71.4091 26.7805 70.9199L26.2319 72.5396ZM11.8465 60.9093L10.5593 62.0374C11.5948 63.2225 12.7276 64.3578 13.9246 65.4099L15.0551 64.125C13.9128 63.1204 12.8345 62.0398 11.8465 60.9093ZM15.029 11.8964L13.8985 10.6139C12.7086 11.6613 11.5781 12.7965 10.5355 13.9887L11.8228 15.1145C12.8155 13.9792 13.8961 12.8962 15.029 11.8964ZM38 1.52C37.183 1.52 36.3707 1.54612 35.568 1.59837L35.682 3.306C36.4491 3.25612 37.221 3.23 38 3.23C57.171 3.23 72.77 18.8266 72.77 38C72.77 57.171 57.1734 72.77 38 72.77C37.221 72.77 36.4491 72.7463 35.682 72.694L35.5656 74.4016C36.3708 74.4539 37.1806 74.4824 37.9976 74.4824C58.1139 74.4824 74.4776 58.1162 74.4776 38.0024C74.4776 17.8885 58.1162 1.52 38 1.52ZM51.129 45.2699L63.8637 31.7751C65.3458 30.2907 65.3481 27.873 63.8637 26.3839C62.4198 24.9446 59.8666 24.985 58.5153 26.3459L48.3289 35.2664C48.1175 33.7677 46.6331 32.395 45.1226 32.395H28.4976C22.4319 32.395 18.5891 36.1166 18.1616 42.3771L11.267 49.2694L12.4759 50.4806L19.6009 43.3556C19.7505 43.206 19.8407 43.0041 19.8502 42.7928C20.1186 37.2709 23.2702 34.105 28.5 34.105H45.125C45.8066 34.105 46.645 34.9434 46.645 35.625C46.645 36.2449 46.474 36.7697 46.1273 37.1949L45.4884 37.753C44.897 38.1282 44.1037 38.3325 43.2487 38.3325H33.25V40.0425H43.2487C44.4766 40.0425 45.5929 39.7338 46.4764 39.1519C46.8065 38.9358 47.0963 38.684 47.3409 38.4037L59.6837 27.5951C60.477 26.8019 61.8592 26.8019 62.6525 27.5951C63.4719 28.4145 63.4719 29.7492 62.6359 30.5852L49.9011 44.0776C49.381 44.6001 48.6946 44.9326 47.9798 45.0229L33.155 46.6521C32.9602 46.6735 32.7797 46.759 32.6444 46.8968L30.2694 49.2718L31.4782 50.483L33.6419 48.3194L48.1792 46.7234C49.2836 46.5833 50.3239 46.075 51.129 45.2699Z" fill="var(--fill-0, #F5F5F5)"/>
<g id="_Transparent_Rectangle">
</g>
</g>
<defs>
<clipPath id="clip0_7336_21897">
<rect width="76" height="76" fill="white"/>
</clipPath>
</defs>
</svg>
