<svg preserveAspectRatio="none" width="100%" height="100%" overflow="visible" style="display: block;" viewBox="0 0 76 76" fill="none" xmlns="http://www.w3.org/2000/svg">
<g id="goals 2" clip-path="url(#clip0_7336_21884)">
<path id="goals_1_" d="M73.6245 24.6084H51.3945V2.37844H53.1069V21.6896L73.0213 1.77519L74.2325 2.98406L54.3134 22.8984H73.6245V24.6084ZM50.7295 38.0034C50.7295 30.9829 45.0177 25.2734 37.9995 25.2734C30.979 25.2734 25.2695 30.9829 25.2695 38.0034C25.2695 45.0216 30.979 50.7334 37.9995 50.7334C45.0177 50.7334 50.7295 45.0216 50.7295 38.0034ZM49.0195 38.0034C49.0195 44.0811 44.0772 49.0234 37.9995 49.0234C31.9219 49.0234 26.9795 44.0811 26.9795 38.0034C26.9795 31.9258 31.9243 26.9834 37.9995 26.9834C44.0748 26.9834 49.0195 31.9258 49.0195 38.0034ZM74.4795 38.0034C74.4795 34.7901 74.0259 31.5173 73.1282 28.2754L71.4823 28.7291C72.3349 31.8237 72.7695 34.9421 72.7695 38.0011C72.7695 57.1721 57.1729 72.7711 37.9995 72.7711C18.8262 72.7734 3.22953 57.1744 3.22953 38.0034C3.22953 18.8301 18.8262 3.23344 37.9995 3.23344C41.0562 3.23344 44.1769 3.66806 47.2715 4.52306L47.7252 2.87481C44.4809 1.97944 41.2105 1.52344 37.9995 1.52344C17.8833 1.52344 1.51953 17.8872 1.51953 38.0034C1.51953 58.1197 17.8833 74.4834 37.9995 74.4834C58.1158 74.4834 74.4795 58.1197 74.4795 38.0034ZM62.6045 38.0034C62.6045 34.6001 61.911 31.2869 60.543 28.1614L58.9755 28.8454C60.2485 31.7572 60.8945 34.8376 60.8945 38.0034C60.8945 50.6266 50.625 60.8984 37.9995 60.8984C25.374 60.8984 15.1045 50.6266 15.1045 38.0034C15.1045 25.3803 25.3764 15.1084 37.9995 15.1084C41.1654 15.1084 44.2482 15.7544 47.1552 17.0274L47.8415 15.4623C44.7137 14.0919 41.4053 13.3984 37.9995 13.3984C24.4335 13.3984 13.3945 24.4374 13.3945 38.0034C13.3945 51.5718 24.4312 62.6084 37.9995 62.6084C51.5679 62.6084 62.6045 51.5718 62.6045 38.0034ZM37.9995 35.6284C36.6885 35.6284 35.6245 36.6924 35.6245 38.0034C35.6245 39.3144 36.6885 40.3784 37.9995 40.3784C39.3105 40.3784 40.3745 39.3144 40.3745 38.0034C40.3745 36.6924 39.3105 35.6284 37.9995 35.6284Z" fill="var(--fill-0, #F5F5F5)"/>
<g id="_Transparent_Rectangle">
</g>
</g>
<defs>
<clipPath id="clip0_7336_21884">
<rect width="76" height="76" fill="white"/>
</clipPath>
</defs>
</svg>
