<svg preserveAspectRatio="xMidYMid meet"  viewBox="0 0 15 20.0274" fill="none" xmlns="http://www.w3.org/2000/svg">
<path id="Vector" d="M7.5 0L0 3.73619V12.5274C2.96403e-08 14.5165 0.790176 16.4242 2.1967 17.8307C3.60322 19.2372 5.51088 20.0274 7.5 20.0274C9.48912 20.0274 11.3968 19.2372 12.8033 17.8307C14.2098 16.4242 15 14.5165 15 12.5274V3.73619L7.5 0ZM11.7687 17.0711L7.5 14.9446V16.3372L10.6476 17.9052C9.69934 18.4574 8.62248 18.7503 7.5252 18.7544C6.42791 18.7586 5.34886 18.4739 4.39649 17.9289C3.44411 17.3839 2.65196 16.5978 2.09964 15.6496C1.54732 14.7015 1.25429 13.6247 1.25 12.5274V4.50594L7.5 1.39244L13.75 4.50594V6.84969L7.5 3.73612V5.12856L13.75 8.24206V10.5858L7.5 7.47231V8.86475L13.75 11.9782V12.5274C13.7503 13.0951 13.6725 13.6603 13.5187 14.2068L7.5 11.2084V12.6009L13.0595 15.3704C12.7297 16.007 12.2931 16.5822 11.7687 17.0711V17.0711Z" fill="var(--fill-0, #8740FF)"/>
</svg>
