<svg preserveAspectRatio="xMidYMid meet"  viewBox="0 0 17.5 17.5" fill="none" xmlns="http://www.w3.org/2000/svg">
<g id="Vector">
<path d="M5 3.75H3.75V6.25H5V3.75Z" fill="#8740FF"/>
<path d="M5 7.5H3.75V10H5V7.5Z" fill="#8740FF"/>
<path d="M8.75 3.75H7.5V6.25H8.75V3.75Z" fill="#8740FF"/>
<path d="M8.75 7.5H7.5V10H8.75V7.5Z" fill="#8740FF"/>
<path d="M5 11.25H3.75V13.75H5V11.25Z" fill="#8740FF"/>
<path d="M8.75 11.25H7.5V13.75H8.75V11.25Z" fill="#8740FF"/>
<path d="M17.5 7.5C17.5 7.16848 17.3683 6.85054 17.1339 6.61612C16.8995 6.3817 16.5815 6.25 16.25 6.25H12.5V1.25C12.5 0.918479 12.3683 0.600537 12.1339 0.366116C11.8995 0.131696 11.5815 0 11.25 0H1.25C0.918479 0 0.600537 0.131696 0.366116 0.366116C0.131696 0.600537 0 0.918479 0 1.25V17.5H17.5V7.5ZM1.25 1.25H11.25V16.25H1.25V1.25ZM12.5 16.25V7.5H16.25V16.25H12.5Z" fill="#8740FF"/>
</g>
</svg>
