<svg preserveAspectRatio="xMidYMid meet"  viewBox="0 0 17.5 17.5" fill="none" xmlns="http://www.w3.org/2000/svg">
<g id="Vector">
<path d="M12.5 7.5C11.5111 7.5 10.5444 7.79324 9.72215 8.34265C8.8999 8.89206 8.25904 9.67295 7.8806 10.5866C7.50216 11.5002 7.40315 12.5055 7.59607 13.4755C7.789 14.4454 8.2652 15.3363 8.96447 16.0355C9.66373 16.7348 10.5546 17.211 11.5245 17.4039C12.4945 17.5969 13.4998 17.4978 14.4134 17.1194C15.327 16.741 16.1079 16.1001 16.6573 15.2779C17.2068 14.4556 17.5 13.4889 17.5 12.5C17.4985 11.1744 16.9712 9.9035 16.0339 8.96615C15.0965 8.02879 13.8256 7.50152 12.5 7.5ZM16.1937 11.875H14.9727C14.8915 10.9325 14.6331 10.0139 14.2113 9.16719C14.729 9.43394 15.1777 9.81743 15.5217 10.2874C15.8658 10.7573 16.0959 11.3008 16.1937 11.875ZM11.2847 11.875C11.3996 10.7454 11.8197 9.66827 12.5 8.75913C13.1804 9.66823 13.6005 10.7453 13.7155 11.875H11.2847ZM13.7159 13.125C13.6009 14.2547 13.1806 15.3318 12.5 16.2409C11.8196 15.3318 11.3995 14.2547 11.2845 13.125H13.7159ZM10.789 9.1675C10.367 10.014 10.1085 10.9326 10.0272 11.875H8.80625C8.90417 11.3009 9.13423 10.7575 9.47826 10.2876C9.82229 9.8177 10.2713 9.43424 10.789 9.1675ZM8.80625 13.125H10.027C10.1082 14.0674 10.3665 14.9859 10.7884 15.8325C10.2707 15.5657 9.82218 15.1823 9.47818 14.7124C9.13418 14.2425 8.90415 13.6991 8.80625 13.125ZM14.2114 15.8325C14.6333 14.986 14.8916 14.0674 14.9728 13.125H16.1937C16.0959 13.6991 15.8659 14.2425 15.5219 14.7124C15.1778 15.1823 14.7291 15.5658 14.2114 15.8325Z" fill="#8740FF"/>
<path d="M6.25 7.5H2.5V8.75H6.25V7.5Z" fill="#8740FF"/>
<path d="M10 2.5H2.5V3.75H10V2.5Z" fill="#8740FF"/>
<path d="M10 5H2.5V6.25H10V5Z" fill="#8740FF"/>
<path d="M6.25 13.75H2.5V15H6.25V13.75Z" fill="#8740FF"/>
<path d="M6.25 17.5H1.25C0.918586 17.4997 0.600846 17.3678 0.3665 17.1335C0.132155 16.8992 0.000347438 16.5814 0 16.25V1.25C0.000347438 0.918586 0.132155 0.600846 0.3665 0.3665C0.600846 0.132155 0.918586 0.000347438 1.25 0H11.25C11.5814 0.000347438 11.8992 0.132155 12.1335 0.3665C12.3678 0.600846 12.4997 0.918586 12.5 1.25V6.25H11.25V1.25H1.25V16.25H6.25V17.5Z" fill="#8740FF"/>
</g>
</svg>
