<svg preserveAspectRatio="xMidYMid meet"  viewBox="0 0 17.5 17.4997" fill="none" xmlns="http://www.w3.org/2000/svg">
<g id="Vector">
<path d="M17.5 16.2497H0V17.4997H17.5V16.2497Z" fill="#8740FF"/>
<path d="M15.625 5.62473C15.7908 5.62473 15.9497 5.55889 16.0669 5.44168C16.1842 5.32447 16.25 5.16549 16.25 4.99973V3.12473C16.2499 2.99629 16.2103 2.87098 16.1365 2.76586C16.0627 2.66073 15.9583 2.58091 15.8375 2.53723L8.9625 0.0372341C8.82518 -0.0124114 8.67482 -0.0124114 8.5375 0.0372341L1.6625 2.53723C1.54171 2.58091 1.4373 2.66073 1.36349 2.76586C1.28968 2.87098 1.25005 2.99629 1.25 3.12473V4.99973C1.25 5.16549 1.31585 5.32447 1.43306 5.44168C1.55027 5.55889 1.70924 5.62473 1.875 5.62473H2.5V13.7497H1.25V14.9997H16.25V13.7497H15V5.62473H15.625ZM2.5 3.56223L8.75 1.28723L15 3.56223V4.37473H2.5V3.56223ZM10 13.7497H7.5V5.62473H10V13.7497ZM3.75 5.62473H6.25V13.7497H3.75V5.62473ZM13.75 13.7497H11.25V5.62473H13.75V13.7497Z" fill="#8740FF"/>
</g>
</svg>
