<svg preserveAspectRatio="xMidYMid meet"  viewBox="0 0 16.25 17.5" fill="none" xmlns="http://www.w3.org/2000/svg">
<g id="Vector">
<path d="M16.25 10C16.2513 9.37416 16.0959 8.75795 15.798 8.20754C15.5001 7.65714 15.0692 7.19004 14.5446 6.84881C14.0199 6.50759 13.4182 6.30311 12.7943 6.25399C12.1704 6.20487 11.5441 6.31269 10.9725 6.56761C10.401 6.82253 9.90228 7.21645 9.52195 7.71346C9.14161 8.21048 8.89171 8.79478 8.79502 9.41311C8.69834 10.0314 8.75795 10.6641 8.96842 11.2535C9.17889 11.8429 9.53352 12.3703 10 12.7875V17.5L12.5 16.3171L15 17.5V12.7875C15.3929 12.4371 15.7074 12.0077 15.9228 11.5273C16.1382 11.0469 16.2497 10.5265 16.25 10ZM13.75 15.525L12.5 14.9333L11.25 15.525V13.5312C12.0578 13.823 12.9422 13.823 13.75 13.5312V15.525ZM12.5 12.5C12.0055 12.5 11.5222 12.3534 11.1111 12.0787C10.7 11.804 10.3795 11.4135 10.1903 10.9567C10.0011 10.4999 9.95157 9.99723 10.048 9.51227C10.1445 9.02732 10.3826 8.58186 10.7322 8.23223C11.0819 7.8826 11.5273 7.6445 12.0123 7.54804C12.4972 7.45157 12.9999 7.50108 13.4567 7.6903C13.9135 7.87952 14.304 8.19995 14.5787 8.61107C14.8534 9.0222 15 9.50555 15 10C14.9993 10.6628 14.7356 11.2983 14.2669 11.7669C13.7983 12.2356 13.1628 12.4993 12.5 12.5Z" fill="#8740FF"/>
<path d="M7.5 7.5H3.125V8.75H7.5V7.5Z" fill="#8740FF"/>
<path d="M9.375 3.75H3.125V5H9.375V3.75Z" fill="#8740FF"/>
<path d="M1.25 17.5C0.918586 17.4997 0.600846 17.3678 0.3665 17.1335C0.132155 16.8992 0.000347438 16.5814 0 16.25V1.25C0.000347438 0.918586 0.132155 0.600846 0.3665 0.3665C0.600846 0.132155 0.918586 0.000347438 1.25 0H11.25C11.5814 0.000347438 11.8992 0.132155 12.1335 0.3665C12.3678 0.600846 12.4997 0.918586 12.5 1.25V3.75H11.25V1.25H1.25V16.25H7.5V17.5H1.25Z" fill="#8740FF"/>
</g>
</svg>
