<svg preserveAspectRatio="xMidYMid meet"  viewBox="0 0 18.75 18.125" fill="none" xmlns="http://www.w3.org/2000/svg">
<g id="Vector">
<path d="M16.875 5.625H13.125C12.6279 5.62555 12.1513 5.82327 11.7998 6.17478C11.4483 6.52629 11.2505 7.00289 11.25 7.5V11.25C11.2504 11.5814 11.3822 11.8991 11.6165 12.1335C11.8509 12.3678 12.1686 12.4996 12.5 12.5V16.875C12.5004 17.2064 12.6322 17.5241 12.8665 17.7585C13.1009 17.9928 13.4186 18.1246 13.75 18.125H16.25C16.5814 18.1246 16.8991 17.9928 17.1335 17.7585C17.3678 17.5241 17.4996 17.2064 17.5 16.875V12.5C17.8314 12.4996 18.1491 12.3678 18.3835 12.1335C18.6178 11.8991 18.7496 11.5814 18.75 11.25V7.5C18.7495 7.00289 18.5517 6.52629 18.2002 6.17478C17.8487 5.82327 17.3721 5.62555 16.875 5.625ZM17.5 11.25H16.25V16.875H13.75V11.25H12.5V7.5C12.5001 7.33429 12.566 7.1754 12.6832 7.05822C12.8004 6.94105 12.9593 6.87515 13.125 6.875H16.875C17.0407 6.87515 17.1996 6.94105 17.3168 7.05822C17.434 7.1754 17.4999 7.33429 17.5 7.5V11.25Z" fill="#8740FF"/>
<path d="M12.5 2.5C12.5 2.00555 12.6466 1.5222 12.9213 1.11108C13.196 0.699953 13.5865 0.379521 14.0433 0.190302C14.5001 0.0010832 15.0028 -0.0484251 15.4877 0.0480379C15.9727 0.144501 16.4181 0.382603 16.7678 0.732234C17.1174 1.08187 17.3555 1.52732 17.452 2.01228C17.5484 2.49723 17.4989 2.99989 17.3097 3.45671C17.1205 3.91353 16.8 4.30397 16.3889 4.57868C15.9778 4.85338 15.4945 5 15 5C14.3372 4.99931 13.7017 4.73569 13.233 4.267C12.7643 3.79831 12.5007 3.16283 12.5 2.5ZM13.75 2.5C13.75 2.74723 13.8233 2.9889 13.9607 3.19446C14.098 3.40003 14.2932 3.56024 14.5216 3.65485C14.7501 3.74946 15.0014 3.77421 15.2439 3.72598C15.4863 3.67775 15.7091 3.5587 15.8839 3.38388C16.0587 3.20907 16.1778 2.98634 16.226 2.74386C16.2742 2.50139 16.2495 2.25005 16.1548 2.02165C16.0602 1.79324 15.9 1.59802 15.6945 1.46066C15.4889 1.32331 15.2472 1.25 15 1.25C14.6686 1.25038 14.3509 1.3822 14.1165 1.61654C13.8822 1.85088 13.7504 2.1686 13.75 2.5Z" fill="#8740FF"/>
<path d="M8.75 9.375V7.5C8.74945 7.00289 8.55173 6.52629 8.20022 6.17478C7.84871 5.82327 7.37211 5.62555 6.875 5.625H3.125C2.62789 5.62555 2.15129 5.82327 1.79978 6.17478C1.44827 6.52629 1.25055 7.00289 1.25 7.5V9.375H0V10.625H10V9.375H8.75ZM2.5 7.5C2.50015 7.33429 2.56604 7.1754 2.68322 7.05822C2.8004 6.94105 2.95929 6.87515 3.125 6.875H6.875C7.04071 6.87515 7.1996 6.94105 7.31678 7.05822C7.43396 7.1754 7.49985 7.33429 7.5 7.5V9.375H2.5V7.5Z" fill="#8740FF"/>
<path d="M2.5 2.5C2.5 2.00555 2.64662 1.5222 2.92133 1.11108C3.19603 0.699953 3.58648 0.379521 4.04329 0.190302C4.50011 0.0010832 5.00277 -0.0484251 5.48773 0.0480379C5.97268 0.144501 6.41814 0.382603 6.76777 0.732234C7.1174 1.08187 7.3555 1.52732 7.45196 2.01228C7.54843 2.49723 7.49892 2.99989 7.3097 3.45671C7.12048 3.91353 6.80005 4.30397 6.38893 4.57868C5.9778 4.85338 5.49445 5 5 5C4.33717 4.99931 3.70169 4.73569 3.233 4.267C2.76431 3.79831 2.50069 3.16283 2.5 2.5ZM3.75 2.5C3.75 2.74723 3.82331 2.9889 3.96066 3.19446C4.09801 3.40003 4.29324 3.56024 4.52165 3.65485C4.75005 3.74946 5.00139 3.77421 5.24386 3.72598C5.48634 3.67775 5.70907 3.5587 5.88388 3.38388C6.0587 3.20907 6.17775 2.98634 6.22598 2.74386C6.27421 2.50139 6.24946 2.25005 6.15485 2.02165C6.06024 1.79324 5.90002 1.59802 5.69446 1.46066C5.4889 1.32331 5.24723 1.25 5 1.25C4.6686 1.25038 4.35087 1.3822 4.11654 1.61654C3.8822 1.85088 3.75038 2.1686 3.75 2.5Z" fill="#8740FF"/>
</g>
</svg>
