<svg preserveAspectRatio="xMidYMid meet"  viewBox="0 0 20 17.5" fill="none" xmlns="http://www.w3.org/2000/svg">
<g id="Vector">
<path d="M3.125 14.375V8.64256L0.883813 10.8838L0 10L3.75 6.25L7.5 10L6.61619 10.8838L4.375 8.64256V14.375H11.875V15.625H4.375C4.0436 15.6246 3.72589 15.4928 3.49155 15.2584C3.25722 15.0241 3.1254 14.7064 3.125 14.375Z" fill="#8740FF"/>
<path d="M15 12.5H17.5C17.8314 12.5003 18.1492 12.6321 18.3835 12.8665C18.6179 13.1008 18.7497 13.4186 18.75 13.75V16.25C18.7497 16.5814 18.6179 16.8992 18.3835 17.1335C18.1492 17.3679 17.8314 17.4997 17.5 17.5H15C14.6686 17.4997 14.3508 17.3679 14.1165 17.1335C13.8821 16.8992 13.7503 16.5814 13.75 16.25V13.75C13.7503 13.4186 13.8821 13.1008 14.1165 12.8665C14.3508 12.6321 14.6686 12.5003 15 12.5ZM17.5 16.25V13.75H14.9991L15 16.25H17.5Z" fill="#8740FF"/>
<path d="M16.875 2.5V8.23244L19.1162 5.99119L20 6.875L16.25 10.625L12.5 6.875L13.3838 5.99119L15.625 8.23244V2.5H8.125V1.25H15.625C15.9564 1.2504 16.2741 1.38222 16.5084 1.61655C16.7428 1.85089 16.8746 2.1686 16.875 2.5Z" fill="#8740FF"/>
<path d="M5 2.5H1.25V3.75H5V2.5Z" fill="#8740FF"/>
<path d="M6.25 0H1.25V1.25H6.25V0Z" fill="#8740FF"/>
</g>
</svg>
