<svg preserveAspectRatio="xMidYMid meet"  viewBox="0 0 17.5011 17.5" fill="none" xmlns="http://www.w3.org/2000/svg">
<g id="Vector">
<path d="M8.30452 8.30916L3.30616 13.3075L4.19005 14.1914L9.18841 9.19304L8.30452 8.30916Z" fill="#8740FF"/>
<path d="M9.37611 17.5C9.29695 17.5002 9.21848 17.4854 9.14486 17.4563C9.04246 17.4155 8.95269 17.3483 8.88463 17.2616C8.81658 17.1749 8.77267 17.0717 8.75736 16.9625L8.13236 12.5875L9.38236 12.4125L9.85111 15.7063L11.8761 14.075V9.37504C11.8756 9.29278 11.8914 9.21125 11.9225 9.1351C11.9536 9.05895 11.9994 8.98969 12.0574 8.93129L14.6011 6.38754C15.1253 5.86695 15.541 5.24758 15.8242 4.56528C16.1074 3.88298 16.2525 3.15129 16.2511 2.41254V1.25004H15.0886C14.3499 1.24863 13.6182 1.39374 12.9359 1.67696C12.2536 1.96018 11.6342 2.37589 11.1136 2.90004L8.56986 5.44379C8.51146 5.50171 8.4422 5.54754 8.36605 5.57865C8.2899 5.60975 8.20836 5.62551 8.12611 5.62504H3.42611L1.79486 7.66254L5.08861 8.13129L4.91361 9.38129L0.538609 8.75629C0.429448 8.74098 0.326278 8.69707 0.239564 8.62901C0.15285 8.56096 0.0856774 8.47118 0.0448587 8.36879C0.00353435 8.26568 -0.00956299 8.15342 0.006915 8.04357C0.023393 7.93371 0.0688509 7.83024 0.138609 7.74379L2.63861 4.61879C2.69618 4.54398 2.76996 4.48319 2.85439 4.44097C2.93882 4.39876 3.03172 4.37622 3.12611 4.37504H7.86986L10.2261 2.01254C10.8631 1.37198 11.6209 0.864247 12.4556 0.518783C13.2903 0.173318 14.1853 -0.00300445 15.0886 3.87299e-05H16.2511C16.5826 3.87299e-05 16.9006 0.131735 17.135 0.366155C17.3694 0.600576 17.5011 0.918518 17.5011 1.25004V2.41254C17.5042 3.31589 17.3278 4.21087 16.9824 5.04556C16.6369 5.88025 16.1292 6.63806 15.4886 7.27504L13.1261 9.63129V14.375C13.1257 14.4689 13.1041 14.5615 13.063 14.6459C13.0219 14.7303 12.9623 14.8043 12.8886 14.8625L9.76361 17.3625C9.65365 17.4508 9.51709 17.4992 9.37611 17.5Z" fill="#8740FF"/>
</g>
</svg>
