<svg preserveAspectRatio="xMidYMid meet"  viewBox="0 0 76 76" fill="none" xmlns="http://www.w3.org/2000/svg">
<g id="flow--chart--detail 1" clip-path="url(#clip0_7336_21876)">
<path id="flow--chart--detail_1_" d="M73.0218 74.2306L46.9371 48.1816C42.1088 52.706 35.6226 55.48 28.5 55.48C13.623 55.48 1.52 43.377 1.52 28.5C1.52 13.623 13.623 1.52 28.5 1.52C37.7839 1.52 45.9871 6.232 50.844 13.395H73.625V15.105H51.9128C52.8865 16.8031 53.6845 18.6176 54.2735 20.52H73.625V22.23H54.7437C55.1617 23.9756 55.4088 25.7877 55.4681 27.645H73.625V29.355H55.4658C55.4088 31.2122 55.1594 33.0267 54.7437 34.7724H73.625V36.4824H54.2759C53.0456 40.4462 50.9248 44.023 48.1484 46.9751L74.2283 73.0218L73.0218 74.2306ZM4.522 36.4824C7.87075 46.5167 17.3541 53.77 28.5 53.77C32.8415 53.77 36.9313 52.6704 40.5056 50.7348H38C37.5274 50.7348 37.145 50.3524 37.145 49.8798V43.6098H26.125C25.6524 43.6098 25.27 43.2274 25.27 42.7548V29.355H15.1026V35.6274C15.1026 36.1 14.7203 36.4824 14.2476 36.4824C14.2476 36.4824 4.522 36.4824 4.522 36.4824ZM38.8526 49.0224H43.2298C47.5024 45.9491 50.7799 41.5744 52.478 36.4848H38.855V49.0224H38.8526ZM26.98 41.8974H37.145V35.6297C37.145 35.1571 37.5274 34.7747 38 34.7747H52.9839C53.4969 32.7679 53.77 30.666 53.77 28.5C53.77 26.3387 53.4993 24.2369 52.9839 22.2324H38C37.5274 22.2324 37.145 21.85 37.145 21.3774V15.105H26.98V41.8974ZM4.0185 34.7747H13.395V22.2348H4.01612C3.50312 24.2369 3.23 26.3387 3.23 28.5C3.23 30.6636 3.50313 32.7679 4.0185 34.7747ZM15.1026 27.6474H25.27V14.25C25.27 13.7774 25.6524 13.395 26.125 13.395H37.145V7.12738C37.145 6.65475 37.5274 6.27237 38 6.27237H40.5151C36.9408 4.33437 32.8462 3.23 28.5 3.23C17.3517 3.23 7.866 10.488 4.51963 20.5247H14.25C14.7226 20.5247 15.105 20.9071 15.105 21.3797L15.1026 27.6474ZM38.8526 20.5247H52.478C50.7823 15.4351 47.5048 11.0604 43.2345 7.98475H38.8502L38.8526 20.5247Z" fill="var(--fill-0, #F5F5F5)"/>
<g id="_Transparent_Rectangle">
</g>
</g>
<defs>
<clipPath id="clip0_7336_21876">
<rect width="76" height="76" fill="white"/>
</clipPath>
</defs>
</svg>
