<svg preserveAspectRatio="xMidYMid meet"  viewBox="0 0 17.5 17.5" fill="none" xmlns="http://www.w3.org/2000/svg">
<g id="Vector">
<path d="M11.25 15.625H3.125C2.79378 15.624 2.4764 15.492 2.24219 15.2578C2.00798 15.0236 1.87597 14.7062 1.875 14.375V6.25H3.125V14.375H11.25V15.625Z" fill="#8740FF"/>
<path d="M13.375 12.5L10.875 10C11.1206 9.62944 11.251 9.19453 11.25 8.75C11.2481 8.08756 10.984 7.4528 10.5156 6.98438C10.0472 6.51596 9.41244 6.25195 8.75 6.25C8.30547 6.24898 7.87056 6.37945 7.5 6.625L5 4.125V0H0V5H4.125L6.625 7.5C6.37945 7.87056 6.24898 8.30547 6.25 8.75C6.25195 9.41244 6.51596 10.0472 6.98438 10.5156C7.4528 10.984 8.08756 11.2481 8.75 11.25C9.19453 11.251 9.62944 11.1206 10 10.875L12.5 13.375V17.5H17.5V12.5H13.375ZM3.75 3.75H1.25V1.25H3.75V3.75ZM8.75 10C8.50277 10 8.2611 9.92669 8.05554 9.78934C7.84998 9.65199 7.68976 9.45676 7.59515 9.22835C7.50054 8.99995 7.47579 8.74861 7.52402 8.50614C7.57225 8.26366 7.6913 8.04093 7.86612 7.86612C8.04093 7.6913 8.26366 7.57225 8.50614 7.52402C8.74861 7.47579 8.99995 7.50054 9.22835 7.59515C9.45676 7.68976 9.65199 7.84998 9.78934 8.05554C9.92669 8.2611 10 8.50277 10 8.75C9.99903 9.08122 9.86702 9.3986 9.63281 9.63281C9.3986 9.86702 9.08122 9.99903 8.75 10ZM16.25 16.25H13.75V13.75H16.25V16.25Z" fill="#8740FF"/>
<path d="M14.375 11.25H15.625V3.125C15.624 2.79378 15.492 2.4764 15.2578 2.24219C15.0236 2.00798 14.7062 1.87597 14.375 1.875H6.25V3.125H14.375V11.25Z" fill="#8740FF"/>
</g>
</svg>
