<svg preserveAspectRatio="xMidYMid meet"  viewBox="0 0 15 17.5" fill="none" xmlns="http://www.w3.org/2000/svg">
<g id="Vector">
<path d="M6.25 9.11875L4.63125 7.5L3.75 8.38125L6.25 10.8812L11.25 5.88125L10.3688 5L6.25 9.11875Z" fill="#8740FF"/>
<path d="M7.5 17.5L3.64013 15.4419C2.53967 14.8565 1.6194 13.9825 0.978099 12.9136C0.336795 11.8448 -0.00133354 10.6215 3.95258e-06 9.375V1.25C0.00035139 0.918586 0.132159 0.600846 0.366504 0.3665C0.600849 0.132155 0.91859 0.000347438 1.25 0H13.75C14.0814 0.000347438 14.3992 0.132155 14.6335 0.3665C14.8678 0.600846 14.9997 0.918586 15 1.25V9.375C15.0013 10.6215 14.6632 11.8448 14.0219 12.9136C13.3806 13.9825 12.4603 14.8565 11.3599 15.4419L7.5 17.5ZM1.25 1.25V9.375C1.24892 10.3949 1.5256 11.3958 2.05034 12.2703C2.57509 13.1449 3.32808 13.86 4.2285 14.3389L7.5 16.0833L10.7715 14.3389C11.6719 13.86 12.4249 13.1449 12.9497 12.2703C13.4744 11.3958 13.7511 10.3949 13.75 9.375V1.25H1.25Z" fill="#8740FF"/>
</g>
</svg>
