<svg preserveAspectRatio="none" width="100%" height="100%" overflow="visible" style="display: block;" viewBox="0 0 76 76" fill="none" xmlns="http://www.w3.org/2000/svg">
<g id="heart--health 1" clip-path="url(#clip0_7336_21872)">
<path id="heart--health_1_" d="M74.48 73.625H72.77C72.77 58.349 61.4246 44.574 45.7924 40.869C45.4361 40.7835 45.1725 40.4819 45.1393 40.1161C45.1036 39.7528 45.3079 39.406 45.6428 39.2564C52.4376 36.233 56.829 29.4809 56.829 22.059C56.829 11.6779 48.3835 3.23237 38.0024 3.23237C27.6189 3.23237 19.1734 11.6779 19.1734 22.059C19.1734 29.4809 23.5648 36.233 30.362 39.2564C30.6969 39.406 30.8988 39.7528 30.8655 40.1161C30.8323 40.4819 30.5686 40.7835 30.2124 40.869C14.5754 44.574 3.23 58.349 3.23 73.625H1.52C1.52 58.2825 12.3833 44.384 27.6498 39.786C21.394 36.1309 17.4586 29.3954 17.4586 22.0566C17.4586 10.7326 26.6713 1.52 37.9976 1.52C49.3216 1.52 58.5343 10.7326 58.5343 22.0566C58.5343 29.3954 54.6013 36.1309 48.3455 39.786C63.6168 44.384 74.48 58.2825 74.48 73.625ZM38 72.105C37.772 72.105 37.5559 72.0147 37.3944 71.8556L27.9846 62.4388C26.771 61.2228 26.0989 59.6101 26.0918 57.8906C26.0846 56.1545 26.7568 54.5181 27.987 53.2879C29.2054 52.0695 30.8251 51.3974 32.5494 51.3926H32.5589C34.2903 51.3926 35.9148 52.0648 37.1355 53.2879L38 54.1571L38.8669 53.2903C41.3036 50.8511 45.5763 50.8487 48.0154 53.2926C49.267 54.5419 49.9415 56.2091 49.9106 57.9809C49.8774 59.6695 49.2053 61.2513 48.013 62.4411L38.6056 71.858C38.4441 72.0148 38.228 72.105 38 72.105ZM32.5589 53.105H32.5518C31.2835 53.1074 30.0913 53.6014 29.1959 54.4991C28.291 55.404 27.7946 56.6058 27.8018 57.8835C27.8065 59.147 28.3029 60.3345 29.1959 61.2275L38 70.0388L46.8041 61.2275C47.6805 60.3535 48.1769 59.1898 48.1983 57.9476C48.222 56.6438 47.728 55.4206 46.8041 54.4991C45.0086 52.6989 41.8713 52.7012 40.0758 54.4967L38.6033 55.9693C38.2684 56.3041 37.7293 56.3041 37.3944 55.9693L35.9243 54.4991C35.0265 53.599 33.8319 53.105 32.5589 53.105Z" fill="var(--fill-0, #F5F5F5)"/>
<g id="_Transparent_Rectangle">
</g>
</g>
<defs>
<clipPath id="clip0_7336_21872">
<rect width="76" height="76" fill="white"/>
</clipPath>
</defs>
</svg>
